<?xml version="1.0" standalone="no"?>
<!DOCTYPE svg PUBLIC "-//W3C//DTD SVG 1.1//EN" "http://www.w3.org/Graphics/SVG/1.1/DTD/svg11.dtd" >
<svg xmlns="http://www.w3.org/2000/svg">
<metadata>Generated by IcoMoon</metadata>
<defs>
<font id="icomoon" horiz-adv-x="1024">
<font-face units-per-em="1024" ascent="960" descent="-64" />
<missing-glyph horiz-adv-x="1024" />
<glyph unicode="&#x20;" horiz-adv-x="512" d="" />
<glyph unicode="&#xe900;" glyph-name="Group-314" d="M982.582 14.577c0 11.758-2.253 22.835-6.764 33.232-4.506 10.391-9.903 21.667-16.179 33.828l-366.466 755.29c-12.549 25.49-24.902 42.941-37.059 52.353s-26.078 14.118-41.765 14.118c-15.294 0-29.118-4.706-41.47-14.118s-24.608-26.863-36.765-52.353l-367.059-755.29c-5.882-12.553-11.078-24.022-15.588-34.412-4.51-10.397-6.765-21.474-6.765-33.238 0-21.962 7.647-39.219 22.941-51.766 15.294-12.553 35.686-18.824 61.176-18.824l767.060 0.59c25.883 0 46.472 6.27 61.759 18.824 15.3 12.547 22.944 29.804 22.944 51.766zM870.231 43.99c0-3.927-2.349-5.885-7.060-5.885h-697.646c-4.314 0-6.471 1.958-6.471 5.885 0 1.175 0.196 2.349 0.588 3.524s0.981 2.349 1.765 3.53l346.47 720.589c0.784 1.176 1.667 2.353 2.647 3.53s2.255 1.764 3.823 1.764c1.569 0 2.941-0.588 4.118-1.764s2.157-2.353 2.941-3.53l346.468-720.589c0.398-1.181 0.885-2.355 1.47-3.53 0.59-1.175 0.885-2.349 0.885-3.524z" />
<glyph unicode="&#xe901;" glyph-name="Group-315" d="M986.829 14.577c0 11.758-2.259 22.835-6.764 33.232-4.512 10.391-9.903 21.667-16.179 33.828l-366.47 755.29c-12.549 25.49-24.902 42.941-37.059 52.353s-26.078 14.118-41.765 14.118c-15.294 0-29.117-4.706-41.47-14.118s-24.608-26.863-36.765-52.353l-367.058-755.29c-5.883-12.553-11.078-24.022-15.588-34.412-4.51-10.397-6.765-21.474-6.765-33.238 0-21.962 7.647-39.219 22.941-51.766 15.294-12.553 35.686-18.824 61.176-18.824l767.064 0.59c25.877 0 46.466 6.27 61.759 18.824 15.294 12.547 22.944 29.804 22.944 51.766z" />
<glyph unicode="&#xe902;" glyph-name="Group-316" d="M530.388-56.773c66.35 0 128.814 12.698 187.382 38.098 58.573 25.395 110.241 60.475 154.999 105.238 44.763 44.759 79.843 96.427 105.238 154.999 25.4 58.568 38.098 121.027 38.098 187.377s-12.698 128.811-38.098 187.383c-25.395 58.571-60.475 110.238-105.238 155-44.759 44.761-96.505 79.841-155.238 105.238-58.729 25.397-121.266 38.095-187.616 38.095s-128.811-12.698-187.382-38.095c-58.571-25.397-110.159-60.476-154.762-105.238s-79.603-96.429-105-155c-25.397-58.571-38.095-121.032-38.095-187.383s12.699-128.809 38.095-187.377c25.397-58.573 60.476-110.241 105.238-154.999 44.762-44.763 96.429-79.843 155-105.238 58.571-25.4 121.032-38.098 187.379-38.098zM530.388 24.181c-56.189 0-108.728 10.474-157.617 31.427-48.889 20.948-91.825 49.918-128.81 86.903-36.984 36.981-65.873 79.921-86.666 128.809s-31.191 101.43-31.191 157.618c0 56.192 10.397 108.732 31.191 157.62s49.603 91.905 86.429 129.048c36.825 37.143 79.682 66.111 128.571 86.905s101.429 31.19 157.62 31.19c56.188 0 108.729-10.397 157.618-31.19s91.906-49.762 129.048-86.905c37.142-37.143 66.189-80.159 87.142-129.048s31.427-101.429 31.427-157.62c0-56.188-10.396-108.729-31.188-157.618-20.797-48.889-49.684-91.828-86.669-128.809-36.986-36.986-79.999-65.955-129.048-86.903-49.045-20.953-101.664-31.427-157.857-31.427zM364.676 282.751h331.43c11.425 0 19.285 5.159 23.572 15.477s3.092 21.031-3.574 32.144l-159.998 270.95c-6.032 10.476-14.604 15.555-25.717 15.238-11.108-0.317-19.68-5.397-25.712-15.238l-160.476-270.95c-6.032-10.162-7.064-20.636-3.095-31.432s11.825-16.189 23.572-16.189z" />
<glyph unicode="&#xe903;" d="M503.828-56.773c66.35 0 128.809 12.698 187.382 38.098 58.573 25.395 110.236 60.475 154.999 105.238 44.763 44.759 79.843 96.427 105.238 154.999 25.395 58.568 38.098 121.027 38.098 187.377s-12.702 128.811-38.098 187.383c-25.395 58.571-60.475 110.238-105.238 155s-96.51 79.841-155.238 105.238c-58.729 25.397-121.271 38.095-187.621 38.095-66.347 0-128.808-12.698-187.379-38.095s-110.159-60.476-154.762-105.238c-44.603-44.762-79.603-96.429-105-155s-38.095-121.032-38.095-187.383c0-66.35 12.698-128.809 38.095-187.377 25.397-58.573 60.476-110.241 105.238-154.999 44.762-44.763 96.429-79.843 155-105.238 58.571-25.4 121.032-38.098 187.381-38.098z" />
<glyph unicode="&#xe904;" d="M332.875 277.514c-11.746 0-19.683 5.554-23.809 16.667-4.127 11.108-3.175 21.904 2.857 32.383l165.714 279.52c6.032 10.159 14.844 15.397 26.429 15.714s20.558-4.92 26.907-15.714l164.284-279.52c6.666-11.43 7.856-22.465 3.574-33.1-4.291-10.635-12.308-15.95-24.049-15.95h-341.907z" />
<glyph unicode="&#xe905;" glyph-name="Group-318" d="M209.822-60.114h638.421c55.086 0 96.402 13.592 123.947 40.788 27.54 27.19 41.316 67.977 41.316 122.368v642.63c0 54.386-13.775 95.176-41.316 122.369-27.546 27.193-68.861 40.79-123.947 40.79h-638.421c-55.088 0-96.404-13.596-123.948-40.79s-41.316-67.982-41.316-122.369v-642.63c0-54.391 13.772-95.178 41.316-122.368 27.544-27.195 68.86-40.788 123.948-40.788zM210.875 24.619c-26.316 0-46.491 6.931-60.526 20.793-14.035 13.856-21.052 34.471-21.052 61.839v634.21c0 27.368 7.018 47.982 21.052 61.842s34.211 20.789 60.526 20.789h636.318c25.961 0 46.048-6.93 60.26-20.789 14.207-13.86 21.315-34.474 21.315-61.842v-634.21c0-27.368-7.109-47.982-21.315-61.839-14.212-13.862-34.299-20.793-60.26-20.793h-636.318zM346.664 263.567h366.314c12.633 0 21.315 5.702 26.053 17.106s3.422 23.245-3.945 35.527l-176.845 299.471c-6.667 11.579-16.136 17.192-28.419 16.842-12.28-0.351-21.755-5.965-28.421-16.842l-177.368-299.471c-6.667-11.232-7.807-22.808-3.421-34.741s13.071-17.893 26.053-17.893z" />
<glyph unicode="&#xe906;" glyph-name="Group-319" d="M183.507-60.114h638.42c55.086 0 96.402 13.592 123.947 40.788 27.546 27.19 41.316 67.977 41.316 122.368v642.63c0 54.386-13.77 95.176-41.316 122.369s-68.861 40.79-123.947 40.79h-638.42c-55.088 0-96.404-13.596-123.948-40.79s-41.316-67.982-41.316-122.369v-642.63c0-54.391 13.772-95.178 41.316-122.368 27.544-27.195 68.86-40.788 123.948-40.788zM314.033 257.779c-12.983 0-21.755 6.139-26.316 18.421-4.561 12.277-3.509 24.21 3.158 35.786l183.158 308.948c6.667 11.228 16.403 17.018 29.21 17.369s22.719-5.439 29.737-17.369l181.578-308.948c7.367-12.633 8.688-24.824 3.95-36.578s-13.598-17.629-26.581-17.629h-377.895z" />
<glyph unicode="&#xe907;" glyph-name="Group-320" horiz-adv-x="964" d="M935.882 836.342c0 21.568-7.65 38.726-22.944 51.47s-35.876 19.118-61.759 19.118l-767.062 0.588c-25.49 0-45.882-6.373-61.176-19.118s-22.941-29.902-22.941-51.47c0-11.765 2.255-22.843 6.765-33.235s9.706-21.863 15.588-34.412l367.059-755.881c12.157-25.1 24.412-42.351 36.765-51.766s26.176-14.119 41.47-14.119c15.686 0 29.608 4.704 41.765 14.119s24.51 26.666 37.059 51.766l366.467 755.881c6.277 12.157 11.668 23.432 16.179 33.824s6.764 21.47 6.764 33.235zM823.531 806.342c0-1.176-0.295-2.353-0.885-3.53-0.584-1.176-1.078-2.549-1.47-4.118l-346.47-719.413c-0.784-1.566-1.765-2.837-2.941-3.819s-2.549-1.476-4.118-1.476c-1.569 0-2.843 0.494-3.823 1.476s-1.863 2.253-2.647 3.819l-346.47 720.002c-0.784 1.569-1.373 2.941-1.765 4.118s-0.588 2.353-0.588 3.529c0 3.922 2.157 5.883 6.471 5.883l697.648-0.588c4.704 0 7.060-1.961 7.060-5.882z" />
<glyph unicode="&#xe908;" glyph-name="Group-321" d="M973.559 836.342c0 21.568-7.65 38.726-22.944 51.47s-35.876 19.118-61.759 19.118l-767.062 0.588c-25.49 0-45.882-6.373-61.176-19.118s-22.941-29.902-22.941-51.47c0-11.765 2.255-22.843 6.765-33.235s9.706-21.863 15.588-34.412l367.059-755.881c12.157-25.1 24.412-42.351 36.765-51.766s26.176-14.119 41.47-14.119c15.686 0 29.608 4.704 41.765 14.119s24.51 26.666 37.059 51.766l366.468 755.881c6.277 12.157 11.668 23.432 16.179 33.824s6.764 21.47 6.764 33.235z" />
<glyph unicode="&#xe909;" glyph-name="Group-322" d="M497.952-53.438c66.35 0 128.809 12.698 187.377 38.098 58.573 25.395 110.241 60.475 154.999 105.238 44.763 44.759 79.843 96.427 105.238 154.999 25.4 58.568 38.098 121.027 38.098 187.377 0 66.352-12.698 128.812-38.098 187.384-25.395 58.571-60.475 110.238-105.238 155-44.759 44.762-96.505 79.841-155.238 105.238-58.729 25.397-121.266 38.095-187.616 38.095-66.348 0-128.808-12.699-187.38-38.095s-110.159-60.476-154.762-105.238c-44.603-44.762-79.603-96.429-105-155s-38.095-121.032-38.095-187.384c0-66.35 12.698-128.809 38.095-187.377 25.397-58.573 60.476-110.241 105.238-154.999 44.762-44.763 96.429-79.843 155-105.238 58.571-25.4 121.032-38.098 187.382-38.098zM497.952 27.516c-56.191 0-108.731 10.474-157.619 31.427s-91.826 49.918-128.81 86.903c-36.984 36.986-65.873 79.921-86.666 128.809s-31.191 101.43-31.191 157.618c0 56.193 10.397 108.733 31.191 157.621s49.603 91.905 86.429 129.048c36.825 37.143 79.682 66.111 128.571 86.905s101.429 31.19 157.618 31.19c56.193 0 108.729-10.397 157.618-31.19s91.906-49.762 129.048-86.905c37.147-37.143 66.194-80.159 87.142-129.048 20.953-48.889 31.427-101.428 31.427-157.621 0-56.188-10.396-108.729-31.188-157.618s-49.684-91.824-86.669-128.809c-36.981-36.986-79.999-65.95-129.048-86.903-49.045-20.953-101.659-31.427-157.852-31.427zM472.237 252.752c6.032-9.84 14.603-14.838 25.715-14.999 11.108-0.161 19.68 4.842 25.712 14.999l159.998 270.953c6.671 11.428 7.86 22.302 3.574 32.619s-12.142 15.476-23.572 15.476h-331.427c-11.746 0-19.603-5.397-23.572-16.19s-2.936-21.428 3.095-31.905l160.476-270.953z" />
<glyph unicode="&#xe90a;" d="M498.454-53.438c66.35 0 128.809 12.698 187.377 38.098 58.573 25.395 110.241 60.475 154.999 105.238 44.763 44.759 79.843 96.427 105.238 154.999 25.4 58.568 38.098 121.027 38.098 187.377 0 66.352-12.698 128.812-38.098 187.384-25.395 58.571-60.475 110.238-105.238 155-44.759 44.762-96.505 79.841-155.238 105.238-58.729 25.397-121.266 38.095-187.616 38.095-66.349 0-128.809-12.699-187.381-38.095s-110.159-60.476-154.762-105.238c-44.603-44.762-79.603-96.429-105-155s-38.095-121.032-38.095-187.384c0-66.35 12.698-128.809 38.095-187.377 25.397-58.573 60.476-110.241 105.238-154.999 44.762-44.763 96.429-79.843 155-105.238 58.571-25.4 121.032-38.098 187.383-38.098z" />
<glyph unicode="&#xe90b;" d="M472.262 247.993l-165.714 279.522c-6.032 10.476-6.984 21.349-2.857 32.619s12.063 16.905 23.809 16.905h341.903c11.747 0 19.763-5.397 24.049-16.19s3.096-21.905-3.574-33.333l-164.284-279.522c-6.349-10.796-15.316-16.033-26.902-15.716-11.59 0.317-20.399 5.559-26.431 15.716z" />
<glyph unicode="&#xe90c;" glyph-name="Group-324" d="M179.895-56.428h638.421c55.086 0 96.402 13.598 123.947 40.788s41.316 67.983 41.316 122.368v642.631c0 54.386-13.77 95.176-41.316 122.369s-68.861 40.79-123.947 40.79h-638.421c-55.088 0-96.404-13.596-123.947-40.79s-41.316-67.982-41.316-122.369v-642.631c0-54.385 13.772-95.178 41.316-122.368s68.859-40.788 123.947-40.788zM180.947 28.306c-26.316 0-46.491 6.931-60.526 20.793-14.035 13.856-21.052 34.471-21.052 61.839v634.211c0 27.368 7.018 47.982 21.052 61.842s34.211 20.789 60.526 20.789h636.318c25.961 0 46.048-6.93 60.26-20.789s21.315-34.474 21.315-61.842v-634.211c0-27.368-7.103-47.982-21.315-61.839-14.212-13.862-34.299-20.793-60.26-20.793h-636.318zM471.473 230.411c6.667-10.876 16.141-16.4 28.421-16.578s21.754 5.352 28.421 16.578l176.843 299.474c7.367 12.631 8.682 24.649 3.945 36.052s-13.42 17.106-26.053 17.106h-366.314c-12.982 0-21.667-5.965-26.053-17.895s-3.246-23.685 3.421-35.263l177.368-299.474z" />
<glyph unicode="&#xe90d;" glyph-name="Group-325" d="M183.5-56.428h638.421c55.086 0 96.402 13.598 123.947 40.788 27.54 27.19 41.316 67.983 41.316 122.368v642.631c0 54.386-13.775 95.176-41.316 122.369-27.546 27.193-68.861 40.79-123.947 40.79h-638.421c-55.088 0-96.404-13.596-123.948-40.79s-41.316-67.982-41.316-122.369v-642.631c0-54.385 13.772-95.178 41.316-122.368s68.86-40.788 123.948-40.788zM474.026 225.151l-183.158 308.945c-6.666 11.579-7.719 23.597-3.158 36.053s13.333 18.684 26.316 18.684h377.896c12.978 0 21.838-5.965 26.581-17.895 4.732-11.93 3.417-24.211-3.95-36.842l-181.579-308.945c-7.018-11.932-16.93-17.721-29.737-17.37s-22.544 6.144-29.21 17.37z" />
<glyph unicode="&#xe90e;" glyph-name="Group-272" horiz-adv-x="1126" d="M363.038 5.289c13.333 0 24.083 4.086 32.25 12.252s12.25 18.749 12.25 31.749c0 6.333-1.083 12.001-3.25 16.998-2.167 5.002-5.084 9.503-8.75 13.501l-144.5 140.498-123.5 105.999-9-22.999 155-6.999h638.498c58.337 0 100.419 13.583 126.249 40.75 25.836 27.167 38.753 69.084 38.753 125.751v295.5c0 58.334-12.918 100.417-38.753 126.25-25.83 25.834-67.912 38.75-126.249 38.75h-279.997c-13.665 0-24.668-4.333-33.004-13-8.33-8.667-12.498-19.166-12.498-31.5s4.086-22.834 12.247-31.5c8.172-8.667 19.256-13 33.254-13h279.997c26.337 0 45.501-6 57.503-18s17.997-31.334 17.997-58v-295.5c0-27.335-5.996-47.082-17.997-59.253-12.001-12.165-31.165-18.248-57.503-18.248h-638.498l-155-6.502 9-22.999 123.5 105.502 144.5 140.5c3.666 4 6.583 8.5 8.75 13.5s3.25 10.833 3.25 17.5c0 12.667-4.083 23.167-12.25 31.5s-18.917 12.5-32.25 12.5c-12.334 0-23-4.667-32-14l-294-288.503c-5-4.664-8.75-9.83-11.25-15.498-2.5-5.663-3.75-11.663-3.75-18.002 0-5.996 1.25-11.827 3.75-17.5 2.5-5.663 6.25-10.998 11.25-15.995l294-288.502c9-9.001 19.666-13.501 32-13.501z" />
<glyph unicode="&#xe90f;" glyph-name="Group-273" horiz-adv-x="1126" d="M388.76 5.289c13.333 0 24.083 4.086 32.25 12.252s12.25 18.749 12.25 31.749c0 6.333-1.083 12.001-3.25 16.998-2.167 5.002-5.084 9.503-8.75 13.501l-144.5 140.498-123.5 105.999-9-22.999 155-6.999h638.499c58.332 0 100.419 13.583 126.249 40.75 25.836 27.167 38.753 69.084 38.753 125.751v295.5c0 58.334-12.918 100.417-38.753 126.25-25.83 25.834-67.917 38.75-126.249 38.75h-279.997c-13.665 0-24.668-4.333-33.004-13-8.33-8.667-12.498-19.166-12.498-31.5s4.081-22.834 12.247-31.5c8.166-8.667 19.251-13 33.254-13h279.997c26.332 0 45.501-6 57.503-18 11.996-12 17.997-31.334 17.997-58v-295.5c0-27.335-6.001-47.082-17.997-59.253-12.001-12.165-31.171-18.248-57.503-18.248h-638.499l-155-6.502 9-22.999 123.5 105.502 144.5 140.5c3.666 4 6.583 8.5 8.75 13.5s3.25 10.833 3.25 17.5c0 12.667-4.083 23.167-12.25 31.5s-18.917 12.5-32.25 12.5c-12.334 0-23-4.667-32-14l-294-288.503c-5-4.664-8.75-9.83-11.25-15.498-2.5-5.663-3.75-11.663-3.75-18.002 0-5.996 1.25-11.827 3.75-17.5 2.5-5.663 6.25-10.998 11.25-15.995l294-288.502c9-9.001 19.666-13.501 32-13.501z" />
<glyph unicode="&#xe910;" glyph-name="Group-274" horiz-adv-x="1126" d="M735.78 5.289c12.334 0 23.168 4.5 32.502 13.501l294.001 288.502c4.997 4.997 8.75 10.332 11.249 15.995 2.499 5.673 3.753 11.505 3.753 17.5 0 6.339-1.254 12.339-3.753 18.002-2.499 5.668-6.252 10.834-11.249 15.498l-294.001 288.503c-9.334 9.333-20.168 14-32.502 14-13.332 0-24.003-4.167-32-12.5s-11.996-18.833-11.996-31.5c0-6.667 0.998-12.5 3-17.5 1.997-5 4.997-9.5 8.996-13.5l144-140.5 124.001-105.502 8.499 22.999-154.998 6.502h-638.001c-26.334 0-45.583 6.083-57.75 18.248-12.167 12.17-18.25 31.918-18.25 59.253v295.5c0 26.666 6 46 18 58s31.334 18 58 18h280c13.667 0 24.667 4.333 33 13s12.502 19.167 12.502 31.5c0 12.334-4.169 22.833-12.502 31.5s-19.333 13-33 13h-280c-58.334 0-100.417-12.917-126.25-38.75s-38.75-67.916-38.75-126.25v-295.5c0-56.667 12.917-98.585 38.75-125.751s67.916-40.75 126.25-40.75h638.001l154.998 6.999-8.499 22.999-124.001-105.999-144-140.498c-3.999-3.999-6.999-8.499-8.996-13.501-2.002-4.997-3-10.665-3-16.998 0-13 3.999-23.583 11.996-31.749s18.668-12.252 32-12.252z" />
<glyph unicode="&#xe911;" glyph-name="Group-275" horiz-adv-x="1401" d="M63.181 555.569c9.123-9.123 19.386-13.421 30.79-12.895s21.491 5.176 30.263 13.947l50.526 50 77.895 82.631v-574.738c0-54.385 13.86-95.173 41.579-122.368 27.719-27.19 68.947-40.788 123.684-40.788h428.423c15.085 0 26.753 3.686 34.999 11.048 8.246 7.373 12.191 17.721 11.841 31.054 0 13.689-4.037 24.215-12.105 31.577-8.073 7.373-19.65 11.054-34.735 11.054h-426.844c-26.316 0-46.579 6.931-60.789 20.793s-21.316 34.471-21.316 61.839v571.581l78.421-83.684 50.526-50c9.123-8.772 19.299-13.421 30.527-13.947s21.403 3.772 30.526 12.895c8.772 8.772 13.070 18.947 12.898 30.527-0.178 11.579-4.827 21.754-13.95 30.526l-177.369 176.842c-17.193 16.842-35 25.263-53.421 25.263s-36.228-8.421-53.421-25.263l-177.368-176.842c-9.123-8.772-13.86-18.947-14.211-30.526s3.86-21.755 12.631-30.527zM511.076 878.201c0.351-13.684 4.561-24.211 12.631-31.579s19.476-11.053 34.211-11.053h427.369c26.311 0 46.49-6.93 60.529-20.789 14.034-13.86 21.051-34.474 21.051-61.842v-571.582l-78.422 84.211-50.526 49.475c-9.124 8.774-19.3 13.42-30.526 13.948-11.232 0.528-21.407-3.595-30.526-12.369-8.774-9.119-13.069-19.386-12.897-30.79s4.824-21.666 13.948-30.79l177.373-176.317c17.192-17.192 35.085-25.789 53.679-25.789s36.492 8.596 53.685 25.789l176.845 176.317c9.119 9.124 13.856 19.386 14.212 30.79 0.345 11.404-3.864 21.671-12.633 30.79-9.124 8.774-19.3 12.897-30.526 12.369-11.232-0.528-21.407-5.174-30.526-13.948l-50.526-49.475-77.894-83.154v574.736c0 54.386-13.775 95.176-41.316 122.369-27.546 27.193-68.861 40.79-123.947 40.79h-428.425c-14.735 0-26.316-3.684-34.737-11.053s-12.456-17.72-12.105-31.053z" />
<glyph unicode="&#xe912;" glyph-name="Group-276" horiz-adv-x="1170" d="M10.258 437.897c-9.206-13.015-11.746-24.522-7.619-34.523s14.762-15.004 31.905-15.004h65.714c6.667-60.631 23.73-117.297 51.19-169.999 27.46-52.697 63.095-98.889 106.905-138.572s93.333-70.632 148.571-92.857c55.237-22.221 113.969-33.334 176.189-33.334 72.699 0 140.717 15.321 204.049 45.953 63.332 30.637 117.38 71.67 162.143 123.095 8.889 10.162 12.859 20.953 11.903 32.383-0.951 11.43-6.032 20.475-15.238 27.141-9.206 6.671-19.046 9.050-29.525 7.144-10.474-1.902-19.519-7.3-27.141-16.189-36.825-42.54-81.666-76.268-134.524-101.191-52.858-24.917-110.080-37.381-171.666-37.381-51.746 0-100.554 8.889-146.428 26.668s-86.746 42.774-122.619 74.996c-35.873 32.227-65.317 69.769-88.333 112.62-23.016 42.862-37.54 89.366-43.571 139.522h70.952c16.825 0 27.381 4.925 31.667 14.765s1.825 21.27-7.381 34.284l-106.667 151.906c-7.619 10.794-16.508 16.27-26.666 16.429s-19.206-5.317-27.143-16.429l-106.667-151.428zM217.401 755.991c-9.206-10.159-13.333-20.873-12.381-32.143s6.19-20.238 15.714-26.904c9.206-6.667 19.048-9.127 29.524-7.381s19.524 7.064 27.143 15.952c37.143 42.539 82.143 76.269 135 101.19s109.761 37.381 170.713 37.381c51.746 0 100.557-8.968 146.427-26.904 45.875-17.937 86.752-43.016 122.622-75.238 35.874-32.222 65.239-69.762 88.093-112.619 22.86-42.857 37.459-89.365 43.808-139.524h-70.949c-16.823 0-27.38-4.921-31.666-14.762-4.286-9.84-1.829-21.27 7.378-34.284l106.667-151.908c7.621-10.791 16.511-16.267 26.668-16.428 10.162-0.156 19.207 5.32 27.141 16.428l106.194 151.43c9.523 13.336 12.142 24.922 7.856 34.762-4.281 9.842-14.999 14.762-32.144 14.762h-65.239c-6.661 60.635-23.728 117.302-51.19 170-27.458 52.698-63.093 98.889-106.906 138.571-43.808 39.683-93.408 70.715-148.807 93.095-55.394 22.381-114.044 33.572-175.952 33.572-72.377 0-140.237-15.318-203.57-45.952s-117.381-71.667-162.143-123.096z" />
<glyph unicode="&#xe913;" glyph-name="Group-277" d="M524.507-46.392c66.35 0 128.814 12.702 187.382 38.098 58.573 25.395 110.241 60.475 154.999 105.238 44.763 44.763 79.843 96.427 105.238 154.999 25.4 58.573 38.098 121.032 38.098 187.382 0 66.348-12.698 128.809-38.098 187.38-25.395 58.571-60.475 110.238-105.238 155-44.759 44.762-96.505 79.841-155.238 105.238-58.729 25.397-121.271 38.095-187.616 38.095-66.351 0-128.811-12.698-187.383-38.095s-110.159-60.476-154.762-105.238c-44.603-44.762-79.603-96.429-105-155s-38.095-121.032-38.095-187.38c0-66.35 12.698-128.809 38.095-187.382s60.476-110.236 105.238-154.999c44.762-44.763 96.429-79.843 155-105.238s121.032-38.098 187.38-38.098zM524.507 34.562c-56.189 0-108.729 10.479-157.617 31.427-48.889 20.953-91.825 49.922-128.81 86.903-36.984 36.986-65.872 79.921-86.666 128.809s-31.191 101.43-31.191 157.623c0 56.19 10.397 108.729 31.191 157.618s49.604 91.905 86.429 129.048c36.825 37.143 79.683 66.111 128.571 86.905s101.429 31.19 157.621 31.19c56.188 0 108.729-10.397 157.618-31.19s91.906-49.762 129.048-86.905c37.142-37.143 66.189-80.159 87.142-129.048s31.427-101.428 31.427-157.618c0-56.193-10.396-108.734-31.188-157.623-20.797-48.889-49.684-91.824-86.669-128.809-36.986-36.981-79.999-65.95-129.048-86.903-49.045-20.948-101.664-31.427-157.857-31.427zM526.414 174.085c29.525 0 58.412 4.842 86.665 14.526 28.258 9.684 52.702 23.094 73.333 40.238 11.43 9.206 18.334 19.368 20.719 30.476 2.38 11.113-0.556 21.114-8.811 29.998-8.255 8.889-17.54 13.015-27.858 12.381s-20.080-4.442-29.286-11.43c-17.14-13.332-34.84-23.567-53.097-30.715-18.252-7.139-38.81-10.713-61.664-10.713-31.744 0-61.032 6.51-87.858 19.524-26.825 13.019-49.603 30.715-68.333 53.097s-31.587 47.699-38.572 75.952h50c11.111 0 17.937 4.208 20.476 12.62 2.54 8.416 0.794 16.906-5.238 25.473l-77.619 107.146c-6.349 8.889-14.285 13.492-23.809 13.81s-17.619-4.286-24.286-13.81l-76.19-107.146c-6.031-8.567-7.857-17.057-5.476-25.473 2.381-8.411 9.127-12.62 20.238-12.62h50.476c7.619-44.125 23.809-82.934 48.571-116.429 24.762-33.49 55.873-59.68 93.333-78.57s78.889-28.336 124.286-28.336zM525.463 707.42c-29.842 0-58.891-4.921-87.145-14.762s-52.698-23.334-73.334-40.476c-11.428-8.889-18.254-18.968-20.476-30.238s0.635-21.19 8.571-29.762c8.571-9.207 17.937-13.413 28.095-12.619s20 4.683 29.524 11.667c17.143 13.333 34.762 23.492 52.857 30.476s38.73 10.476 61.907 10.476c31.427 0 60.557-6.429 87.381-19.286s49.601-30.476 68.33-52.857c18.729-22.381 31.588-47.698 38.571-75.953h-52.853c-11.113 0-17.857-4.206-20.241-12.617-2.38-8.416-0.556-16.906 5.476-25.478l77.146-107.618c6.349-8.572 14.282-13.097 23.806-13.575 9.523-0.473 17.623 4.052 24.288 13.575l76.19 107.618c6.349 8.572 8.333 17.062 5.954 25.478-2.384 8.411-9.128 12.617-20.241 12.617h-47.616c-7.938 44.127-24.288 82.937-49.050 116.429s-55.871 59.682-93.335 78.571c-37.459 18.889-78.726 28.334-123.806 28.334z" />
<glyph unicode="&#xe914;" d="M515.672-46.392c66.35 0 128.809 12.702 187.382 38.098s110.236 60.475 154.999 105.238c44.763 44.763 79.843 96.427 105.238 154.999s38.098 121.032 38.098 187.382c0 66.348-12.702 128.809-38.098 187.38s-60.475 110.238-105.238 155c-44.763 44.762-96.51 79.841-155.238 105.238s-121.271 38.095-187.621 38.095c-66.346 0-128.807-12.698-187.378-38.095s-110.159-60.476-154.762-105.238c-44.603-44.762-79.603-96.429-105-155s-38.095-121.032-38.095-187.38c0-66.35 12.698-128.809 38.095-187.382s60.476-110.236 105.238-154.999c44.762-44.763 96.429-79.843 155-105.238s121.032-38.098 187.38-38.098z" />
<glyph unicode="&#xe915;" d="M518.056 165.040c-46.669 0-89.288 9.684-127.859 29.047-38.572 19.368-70.715 46.348-96.429 80.95-25.715 34.606-42.54 74.767-50.476 120.476h-51.905c-11.429 0-18.334 4.369-20.715 13.097s-0.555 17.54 5.476 26.429l79.047 110.476c6.984 9.841 15.397 14.603 25.238 14.285s18.095-5.079 24.762-14.285l79.524-110.476c6.349-8.889 8.254-17.701 5.714-26.429s-9.524-13.097-20.953-13.097h-51.905c7.302-29.204 20.556-55.316 39.762-78.331s42.698-41.189 70.476-54.526c27.778-13.332 57.857-19.997 90.24-19.997 23.81 0 45.080 3.652 63.81 10.952 18.729 7.305 36.82 17.779 54.282 31.427 9.845 7.305 20.002 11.269 30.476 11.903 10.479 0.639 20.002-3.647 28.574-12.854 8.889-8.889 12.064-19.207 9.523-30.954-2.54-11.742-9.684-22.377-21.431-31.905-21.27-17.457-46.426-31.188-75.474-41.189-29.047-9.996-58.968-14.999-89.761-14.999zM517.1 715.515c46.67 0 89.288-9.762 127.859-29.286s70.715-46.587 96.427-81.191c25.717-34.603 42.545-74.603 50.478-120h49.050c11.747 0 18.807-4.365 21.187-13.096 2.384-8.728 0.4-17.54-5.949-26.429l-78.575-110.953c-6.983-9.518-15.472-14.121-25.473-13.809-10.001 0.322-18.174 4.925-24.527 13.809l-79.999 110.953c-6.349 8.572-8.255 17.306-5.715 26.19 2.54 8.891 9.684 13.335 21.431 13.335h54.287c-7.3 28.889-20.558 54.842-39.765 77.857s-42.618 41.191-70.237 54.524c-27.619 13.333-57.778 20-90.478 20-23.81 0-44.999-3.571-63.57-10.713s-36.746-17.54-54.524-31.191c-9.524-7.302-19.603-11.269-30.238-11.904s-20.238 3.65-28.81 12.857c-8.571 8.889-11.667 19.206-9.286 30.952s9.444 22.223 21.19 31.429c21.27 17.778 46.508 31.666 75.715 41.667s59.047 15 89.522 15z" />
<glyph unicode="&#xe916;" glyph-name="Group-279" horiz-adv-x="1219" d="M30.654 437.897c-9.206-13.015-11.746-24.522-7.619-34.523s14.762-15.004 31.905-15.004h65.714c6.667-60.631 23.73-117.297 51.19-169.999 27.46-52.697 63.095-98.889 106.905-138.572s93.333-70.632 148.571-92.857c55.237-22.221 113.965-33.334 176.19-33.334 72.699 0 140.712 15.321 204.049 45.953 63.332 30.637 117.38 71.67 162.143 123.095 8.889 10.162 12.854 20.953 11.903 32.383s-6.032 20.475-15.238 27.141c-9.206 6.671-19.046 9.050-29.525 7.144-10.474-1.902-19.519-7.3-27.141-16.189-36.825-42.54-81.666-76.268-134.524-101.191-52.858-24.917-110.080-37.381-171.666-37.381-51.746 0-100.557 8.889-146.429 26.668-45.873 17.779-86.746 42.774-122.619 74.996-35.873 32.227-65.318 69.769-88.333 112.62-23.016 42.862-37.54 89.366-43.571 139.522h70.952c16.825 0 27.381 4.925 31.667 14.765s1.825 21.27-7.381 34.284l-106.667 151.906c-7.619 10.794-16.508 16.27-26.666 16.429s-19.206-5.317-27.143-16.429l-106.667-151.428zM237.797 755.991c-9.206-10.159-13.333-20.873-12.381-32.143s6.19-20.238 15.714-26.904c9.206-6.667 19.047-9.127 29.524-7.381s19.524 7.064 27.143 15.952c37.143 42.539 82.143 76.269 135 101.19s109.762 37.381 170.714 37.381c51.746 0 100.557-8.968 146.427-26.904 45.875-17.937 86.747-43.016 122.622-75.238s65.239-69.762 88.093-112.619c22.855-42.857 37.459-89.365 43.808-139.524h-70.949c-16.828 0-27.38-4.921-31.666-14.762-4.286-9.84-1.829-21.27 7.378-34.284l106.667-151.908c7.621-10.791 16.511-16.267 26.668-16.428 10.157-0.156 19.207 5.32 27.141 16.428l106.194 151.43c9.523 13.336 12.142 24.922 7.856 34.762-4.286 9.842-14.999 14.762-32.144 14.762h-65.239c-6.666 60.635-23.728 117.302-51.19 170-27.458 52.698-63.093 98.889-106.906 138.571-43.808 39.683-93.408 70.715-148.807 93.095s-114.049 33.572-175.952 33.572c-72.382 0-140.238-15.318-203.571-45.952s-117.381-71.667-162.143-123.096zM603.511 353.607c23.81 0 35.874 12.542 36.191 37.62l7.144 251.431c0.317 12.064-3.735 22.143-12.147 30.238s-18.964 12.143-31.666 12.143c-13.015 0-23.572-3.968-31.666-11.905s-11.981-17.937-11.664-30l6.188-251.907c0.634-25.078 13.175-37.62 37.62-37.62zM603.511 198.846c13.648 0 25.634 4.764 35.952 14.287 10.318 9.528 15.477 21.27 15.477 35.235 0 13.97-5.081 25.717-15.238 35.24-10.157 9.528-22.221 14.287-36.191 14.287s-26.034-4.842-36.191-14.526c-10.157-9.679-15.238-21.348-15.238-35.001 0-13.648 5.081-25.312 15.238-34.996s22.221-14.526 36.191-14.526z" />
<glyph unicode="&#xe917;" glyph-name="Group-280" horiz-adv-x="698" d="M282.727-53.369c56.363 0 105.681 11.743 147.955 35.226 42.271 23.487 75.151 56.441 98.638 98.863 23.482 42.426 35.226 91.974 35.226 148.638v90c0 10.608-3.789 19.698-11.362 27.271-7.578 7.578-16.668 11.362-27.276 11.362-10.906 0-20.15-3.784-27.727-11.362-7.573-7.573-11.362-16.663-11.362-27.271v-90c0-40.909-8.56-76.744-25.682-107.501-17.121-30.757-40.985-54.696-71.591-71.82-30.606-17.119-66.212-25.679-106.818-25.679-40.909 0-76.742 8.56-107.5 25.679-30.758 17.124-54.697 41.062-71.818 71.82s-25.682 66.593-25.682 107.501v418.637c0 40.606 8.561 76.288 25.682 107.046s41.061 54.697 71.818 71.818c30.758 17.121 66.591 25.681 107.5 25.681 40.606 0 76.212-8.561 106.818-25.681s54.47-41.061 71.591-71.818c17.123-30.758 25.682-66.439 25.682-107.046v-55h77.726v55c0 56.364-11.743 105.758-35.226 148.182-23.487 42.424-56.367 75.303-98.638 98.636-42.273 23.333-91.591 35-147.955 35-56.667 0-106.212-11.667-148.636-35s-75.379-56.212-98.864-98.636c-23.485-42.424-35.227-91.818-35.227-148.182v-418.637c0-56.664 11.742-106.212 35.227-148.638 23.485-42.422 56.439-75.376 98.864-98.863 42.424-23.482 91.97-35.226 148.636-35.226zM631.817 646.176h-209.090c-16.061 0-26.136-4.773-30.227-14.318s-1.743-20.53 7.045-32.955l101.819-145.001c7.275-10.301 15.76-15.528 25.456-15.681 9.695-0.149 18.334 5.078 25.907 15.681l102.274 144.547c8.788 12.727 11.213 23.864 7.27 33.409-3.938 9.546-14.089 14.318-30.455 14.318z" />
<glyph unicode="&#xe918;" glyph-name="Group-281" horiz-adv-x="939" d="M272.010 280.862c8.611 1.946 15.139 6.669 19.583 14.17s5.417 15.556 2.917 24.166l-35 138.748c-3.889 14.17-10.694 24.030-20.417 29.585-5.277 3.337-10.764 5.141-16.458 5.414-5.694 0.282-12.152-0.55-19.375-2.496l-137.083-38.75c-9.167-2.5-15.834-7.501-20-15.002s-5-15.415-2.5-23.753c2.223-8.887 7.153-15.484 14.792-19.789s15.764-5.069 24.375-2.291l121.25 35.831 29.167-122.914c1.945-9.165 6.736-15.834 14.375-20.002 7.639-4.164 15.764-5.137 24.375-2.918zM150.76 47.949h223.334c9.722 0 17.847 3.055 24.375 9.165s9.791 13.892 9.791 23.334c0 9.446-3.264 17.293-9.791 23.543s-14.653 9.374-24.375 9.374h-222.917c-14.444 0-26.042 5.001-34.792 15.002s-13.125 21.525-13.125 34.581c0 3.891 0.417 7.987 1.25 12.292s2.361 8.401 4.583 12.288l144.583 258.752-56.666 33.331-145.833-259.998c-5-9.165-8.819-18.543-11.458-28.126s-3.958-19.093-3.958-28.54c0-21.389 4.653-40.832 13.958-58.33 9.306-17.502 22.57-31.322 39.792-41.463 17.222-10.138 37.639-15.206 61.25-15.206zM664.926 489.613l56.666 32.922-151.249 270.415c-10.556 19.167-24.789 33.611-42.709 43.333-17.916 9.722-36.595 14.583-56.043 14.583-19.443 0-38.123-4.931-56.038-14.792s-32.292-24.236-43.125-43.125l-115-205.417c-5.277-9.445-6.736-18.333-4.375-26.667s7.569-14.861 15.625-19.584c8.334-4.722 16.875-5.764 25.625-3.125s15.486 8.125 20.208 16.458l115.002 206.25c4.719 8.333 10.833 14.375 18.33 18.125 7.501 3.75 15.42 5.625 23.748 5.625 8.055 0 15.765-1.875 23.125-5.625 7.364-3.75 13.406-9.792 18.125-18.125l152.085-271.253zM670.758 479.612c7.223-1.941 13.611-2.773 19.166-2.496s11.115 2.082 16.67 5.414c9.724 6.114 16.529 15.974 20.416 29.585l34.581 138.751c2.5 8.611 1.6 16.667-2.709 24.167-4.301 7.5-10.761 12.222-19.375 14.167-8.61 2.222-16.734 1.25-24.371-2.917s-12.433-10.833-14.379-20l-29.167-122.917-121.664 35.833c-8.61 2.5-16.666 1.597-24.166-2.708s-12.501-10.764-15.002-19.375c-2.219-8.333-1.246-16.25 2.918-23.75 4.169-7.499 10.697-12.5 19.584-15l137.498-38.754zM497.007 47.949h295.002c23.612 0 44.032 5.069 61.252 15.206 17.22 10.142 30.485 23.962 39.791 41.463 9.306 17.498 13.956 36.941 13.956 58.33 0 9.446-1.25 18.889-3.75 28.331-2.5 9.446-6.387 18.893-11.665 28.335l-110.417 197.082c-4.719 8.892-11.388 14.379-19.998 16.461s-16.947 0.764-25.003-3.959c-8.055-4.719-13.333-11.456-15.834-20.207-2.5-8.747-1.387-17.289 3.332-25.626l109.585-195.836c2.223-3.887 3.891-7.983 5.001-12.288 1.114-4.305 1.668-8.401 1.668-12.292 0-13.056-4.514-24.58-13.542-34.581s-20.762-15.002-35.209-15.002h-294.17v-65.417zM587.008-51.221c6.391-6.665 13.892-9.924 22.502-9.783 8.61 0.137 15.97 3.396 22.080 9.783 6.391 6.114 9.587 13.547 9.587 22.298 0 8.747-3.332 16.316-10.001 22.703l-91.669 86.669 91.669 86.665c6.669 6.391 10.001 13.961 10.001 22.711s-3.196 16.179-9.587 22.289c-6.11 6.391-13.47 9.655-22.080 9.792-8.61 0.141-16.111-3.123-22.502-9.792l-102.498-99.166c-10.001-10.001-15.002-20.834-15.002-32.499s5.001-22.362 15.002-32.081l102.498-99.588z" />
<glyph unicode="&#xe919;" glyph-name="Group-282" d="M85.581 341.989l348.261-348.262c32.176-32.171 64.205-48.404 96.087-48.693s63.768 15.507 95.651 47.389l350.003 350.435c31.882 31.597 47.678 63.408 47.389 95.437s-16.518 64.129-48.693 96.305l-347.826 347.826c-32.176 32.174-64.205 48.406-96.087 48.696s-63.768-15.507-95.654-47.391l-350.435-350c-31.884-32.175-47.681-64.132-47.391-95.872 0.29-31.735 16.522-63.693 48.696-95.869zM136.016 390.251c-15.362 15.654-23.188 31.593-23.478 47.825s7.681 32.323 23.913 48.262l345.216 345.218c15.943 15.942 32.029 23.913 48.262 23.913s32.176-7.826 47.825-23.478l346.090-346.089c15.36-15.36 23.187-31.232 23.476-47.607s-7.68-32.536-23.913-48.48l-345.217-345.217c-16.233-15.939-32.465-23.913-48.698-23.913-16.228 0-32.024 7.684-47.389 23.044l-346.088 346.522zM341.234 301.555c0-12.462 3.044-22.172 9.13-29.131 6.087-6.954 14.638-10.436 25.653-10.436 11.304 0.294 19.927 3.842 25.869 10.654s8.913 16.451 8.913 28.912v120.868c0 19.714 4.71 34.206 14.13 43.48 9.42 9.278 23.552 13.913 42.393 13.913h113.477v-68.261c0-13.913 6.304-23.405 18.913-28.481 12.609-5.071 24.856-2.391 36.739 8.045l103.477 89.564c13.045 11.309 19.567 22.684 19.567 34.133s-6.522 22.826-19.567 34.13l-103.477 90c-8.116 6.957-16.451 10.29-24.999 10-8.553-0.29-15.796-3.188-21.74-8.696s-8.913-12.899-8.913-22.174v-68.261h-114.781c-42.031 0-73.335-10.217-93.915-30.652-20.579-20.436-30.869-51.521-30.869-93.261v-124.349z" />
<glyph unicode="&#xe91a;" glyph-name="Group-283" d="M73.068 341.989l348.261-348.262c32.175-32.171 64.203-48.404 96.085-48.693 31.886-0.289 63.768 15.507 95.651 47.389l350.003 350.435c31.886 31.597 47.683 63.408 47.389 95.437-0.285 32.029-16.518 64.129-48.693 96.305l-347.826 347.826c-32.171 32.174-64.2 48.406-96.087 48.696-31.882 0.29-63.768-15.507-95.652-47.391l-350.435-350c-31.884-32.175-47.681-64.132-47.391-95.872 0.29-31.735 16.522-63.693 48.696-95.869zM322.633 311.118v114.35c0 43.48 10.58 75.727 31.739 96.74 21.159 21.015 53.478 31.522 96.958 31.522h123.908v57.826c0 14.493 5.944 24.275 17.827 29.348 11.887 5.072 23.481 3.116 34.785-5.87l106.086-82.174c13.913-11.015 20.867-22.826 20.867-35.435 0-12.607-6.954-24.418-20.867-35.438l-106.086-82.606c-11.304-8.695-22.898-10.507-34.785-5.436-11.883 5.075-17.827 14.999-17.827 29.781v57.393h-122.604c-19.132 0-33.552-4.853-43.263-14.568-9.71-9.706-14.565-24.563-14.565-44.562v-110.872c0-13.040-3.188-23.040-9.565-29.999-6.377-6.954-15.218-10.578-26.522-10.868-11.594 0-20.507 3.553-26.739 10.65-6.232 7.106-9.348 17.176-9.348 30.217z" />
<glyph unicode="&#xe91b;" glyph-name="Group-284" d="M498.698-43.057c66.35 0 128.814 12.702 187.382 38.098 58.573 25.395 110.241 60.475 154.999 105.238 44.763 44.763 79.843 96.427 105.238 154.999 25.4 58.573 38.098 121.032 38.098 187.382s-12.698 128.81-38.098 187.381c-25.395 58.571-60.475 110.238-105.238 155-44.759 44.762-96.505 79.841-155.238 105.238-58.729 25.397-121.266 38.095-187.616 38.095s-128.811-12.698-187.382-38.095c-58.572-25.397-110.159-60.476-154.762-105.238s-79.603-96.429-105-155c-25.397-58.571-38.095-121.032-38.095-187.381s12.698-128.809 38.095-187.382c25.397-58.573 60.476-110.236 105.238-154.999s96.429-79.843 155-105.238c58.571-25.395 121.032-38.098 187.379-38.098zM498.698 37.898c-56.189 0-108.728 10.479-157.617 31.427-48.889 20.953-91.826 49.922-128.81 86.903-36.984 36.986-65.873 79.921-86.666 128.809s-31.191 101.43-31.191 157.623c0 56.191 10.397 108.73 31.191 157.619s49.603 91.905 86.429 129.048c36.825 37.143 79.682 66.111 128.571 86.905s101.429 31.19 157.62 31.19c56.188 0 108.729-10.397 157.618-31.19s91.906-49.762 129.048-86.905c37.142-37.143 66.189-80.159 87.142-129.048s31.427-101.428 31.427-157.619c0-56.193-10.396-108.734-31.188-157.623-20.797-48.889-49.684-91.824-86.669-128.809-36.986-36.981-79.999-65.95-129.048-86.903-49.045-20.948-101.664-31.427-157.857-31.427zM291.557 293.137c0-13.653 3.333-24.288 10-31.905s16.031-11.43 28.095-11.43c12.381 0.322 21.825 4.208 28.334 11.664 6.508 7.461 9.762 18.018 9.762 31.671v132.379c0 21.587 5.159 37.464 15.476 47.621 10.318 10.159 25.794 15.238 46.429 15.238h124.288v-74.762c0-15.238 6.905-25.634 20.714-31.193 13.809-5.554 27.224-2.619 40.238 8.811l113.332 98.096c14.282 12.381 21.426 24.841 21.426 37.381s-7.144 25-21.426 37.381l-113.332 98.571c-8.889 7.619-18.018 11.27-27.385 10.952s-17.301-3.492-23.81-9.524c-6.505-6.032-9.757-14.127-9.757-24.286v-74.762h-125.717c-46.032 0-80.317-11.19-102.857-33.572s-33.81-56.429-33.81-102.146v-136.187z" />
<glyph unicode="&#xe91c;" d="M522.703-43.057c66.35 0 128.809 12.702 187.377 38.098 58.573 25.395 110.241 60.475 154.999 105.238 44.763 44.763 79.843 96.427 105.238 154.999 25.4 58.573 38.098 121.032 38.098 187.382s-12.698 128.81-38.098 187.381c-25.395 58.571-60.475 110.238-105.238 155-44.759 44.762-96.505 79.841-155.238 105.238-58.729 25.397-121.266 38.095-187.616 38.095s-128.81-12.698-187.382-38.095c-58.571-25.397-110.159-60.476-154.762-105.238s-79.603-96.429-105-155c-25.397-58.571-38.095-121.032-38.095-187.381s12.698-128.809 38.095-187.382c25.397-58.573 60.476-110.236 105.238-154.999s96.429-79.843 155-105.238c58.572-25.395 121.032-38.098 187.384-38.098z" />
<glyph unicode="&#xe91d;" d="M309.367 303.616v125.24c0 47.616 11.587 82.932 34.762 105.948s58.571 34.524 106.19 34.524h135.716v63.333c0 15.873 6.51 26.587 19.524 32.143s25.712 3.412 38.093-6.429l116.19-90c15.238-12.064 22.86-25 22.86-38.81s-7.621-26.746-22.86-38.81l-116.19-90.475c-12.381-9.523-25.078-11.508-38.093-5.949-13.015 5.554-19.524 16.428-19.524 32.617v62.855h-134.287c-20.952 0-36.746-5.317-47.381-15.952-10.635-10.633-15.952-26.905-15.952-48.809v-121.427c0-14.287-3.492-25.239-10.476-32.856-6.984-7.621-16.667-11.591-29.048-11.908-12.698 0-22.46 3.886-29.285 11.669-6.825 7.773-10.238 18.807-10.238 33.095z" />
<glyph unicode="&#xe91e;" glyph-name="Group-286" horiz-adv-x="683" d="M60.932 26.709c14.815 0 29.075 4.631 42.778 13.887l28.889 19.445c19.259 12.965 40 29.355 62.222 49.169 22.223 19.82 43.704 40.744 64.444 62.777 20.741 22.039 38.704 43.338 53.889 63.892s25.185 38.241 30 53.055h1.667c4.815-14.814 14.722-32.41 29.722-52.782 15-20.366 32.87-41.665 53.611-63.886s42.222-43.236 64.444-63.056c22.223-19.814 43.149-36.204 62.778-49.169l28.889-19.445c13.705-9.256 27.779-13.887 42.223-13.887 14.074 0 25.463 4.352 34.167 13.056s13.056 19.911 13.056 33.61c0 18.523-7.964 32.779-23.888 42.78l-43.89 28.331c-19.263 12.965-41.114 30.185-65.558 51.666s-47.87 46.296-70.278 74.445c-22.407 28.149-40.926 58.334-55.556 90.556-14.63 32.225-21.944 65.373-21.944 99.447v283.333h-97.222v-283.333c0-34.074-7.315-67.222-21.945-99.447-14.63-32.222-33.24-62.31-55.833-90.277-22.592-27.961-46.018-52.776-70.278-74.445-24.259-21.663-46.019-38.98-65.278-51.945l-43.889-28.331c-15.926-10.001-23.889-24.445-23.889-43.338 0-12.59 4.259-23.421 12.778-32.495s19.815-13.614 33.889-13.614zM216.488 668.934h255c19.63 0 31.945 5.833 36.944 17.5 5.001 11.667 1.945 25.093-9.167 40.278l-123.889 177.222c-8.889 12.593-19.259 18.981-31.111 19.167s-22.407-6.204-31.667-19.167l-124.444-176.667c-10.741-15.556-13.703-29.167-8.889-40.834s17.223-17.5 37.222-17.5z" />
<glyph unicode="&#xe91f;" glyph-name="Group-287" horiz-adv-x="1078" d="M133.318 220.564h94.211v435.794c0 45.614 12.368 81.755 37.105 108.421s56.053 40 93.948 40c38.246 0 70-13.246 95.263-39.737s37.894-62.719 37.894-108.684v-360.53c0-50.877 9.737-94.995 29.21-132.365 19.474-37.371 46.314-66.231 80.526-86.582s73.248-30.526 117.108-30.526c43.86 0 82.718 10.175 116.574 30.526 33.862 20.351 60.438 49.211 79.737 86.582s28.947 81.489 28.947 132.365v431.583h-94.208v-438.95c0-45.261-12.369-81.225-37.107-107.892s-56.051-40.001-93.944-40.001c-38.249 0-70.004 13.161-95.264 39.473-25.26 26.317-37.893 62.459-37.893 108.42v360.529c0 50.877-9.739 95-29.211 132.369-19.475 37.368-46.318 66.227-80.528 86.579s-73.246 30.527-117.105 30.527c-43.86 0-82.719-10.175-116.579-30.527s-60.438-49.211-79.737-86.579c-19.298-37.368-28.947-81.492-28.947-132.369v-428.425zM59.634 260.565c-18.947 0-30.702-5.524-35.263-16.578-4.561-11.048-1.754-23.768 8.421-38.157l117.895-167.37c8.772-12.277 18.772-18.33 30-18.157 11.228 0.178 21.053 6.23 29.473 18.157l117.895 167.898c10.175 14.39 12.895 27.017 8.158 37.893s-16.403 16.314-35 16.314h-241.579zM776.478 684.253h241.050c18.599 0 30.262 5.526 34.999 16.579s2.021 23.772-8.154 38.158l-117.372 167.895c-8.418 11.93-18.33 17.982-29.734 18.158s-21.315-5.877-29.739-18.158l-117.895-167.368c-10.526-14.737-13.42-27.632-8.682-38.685s16.578-16.579 35.527-16.579z" />
<glyph unicode="&#xe920;" glyph-name="Group-288" horiz-adv-x="973" d="M468.307-23.711c29 0 43.5 17.669 43.5 53.002v287.002c0 30.003 7.417 62.418 22.249 97.249 14.833 34.834 34.668 69.667 59.5 104.501s52.419 67.083 82.749 96.75c30.336 29.666 60.836 54.333 91.5 74l39.997 26c14.336 9 21.504 22 21.504 39 0 12-3.917 21.917-11.75 29.75s-18.084 11.75-30.751 11.75c-13 0-25.667-4.167-38.001-12.5l-26.501-17.5c-30.331-20.334-59.827-44.25-88.499-71.75-28.662-27.501-54.661-56.001-77.998-85.5-23.332-29.5-42.665-57.833-57.999-85-15.333-27.167-25-50.417-29-69.75h-1.5c-4 19.333-13.583 42.584-28.75 69.75s-34.5 55.583-58 85.25c-23.5 29.666-49.5 58.166-78 85.5s-57.917 51.166-88.25 71.5l-26.5 17.5c-12.666 8.333-25.5 12.5-38.5 12.5-12.666 0-22.833-4.084-30.5-12.25s-11.5-17.75-11.5-28.75c0-17.333 7.166-30.5 21.5-39.5l40-26c30.667-19.667 61.084-44.334 91.25-74s57.667-61.917 82.5-96.75c24.833-34.833 44.75-69.667 59.75-104.501 15-34.831 22.5-67.246 22.5-97.249v-287.002c0-35.333 14.5-53.002 43.5-53.002zM124.307 627.793l140 181.5c10.666 14 13.25 25.999 7.75 36s-16.583 15.333-33.25 16l-194.5 8.5c-14 0.667-24.333-3.167-31-11.5s-7.833-19.334-3.5-33l57.5-185.5c5-16.333 13-26 24-29s22 2.666 33 17zM806.308 628.293c10.332-14.667 21.084-20.667 32.246-18 11.172 2.666 19.42 12 24.75 28l63.002 184c4.669 13.667 3.835 24.75-2.499 33.25s-16.502 12.583-30.5 12.25l-195-3c-16.666-0.333-27.914-5.334-33.751-15-5.832-9.667-3.584-21.667 6.748-36l135.004-185.5z" />
<glyph unicode="&#xe921;" glyph-name="Group-289" horiz-adv-x="585" d="M178.467 8.133c13.333 0 23.571 3.73 30.714 11.191s10.714 18.013 10.714 31.666v368.094h-35.238c9.841-28.57 24.127-55.793 42.857-81.666s41.19-49.84 67.381-71.904c26.191-22.060 55.635-41.984 88.333-59.763s67.937-33.017 105.712-45.714c13.336-5.081 25.161-4.998 35.479 0.239s17.379 12.62 21.192 22.143c4.125 9.206 4.442 19.046 0.951 29.52-3.491 10.479-12.064 18.734-25.717 24.766-44.125 18.096-84.601 38.81-121.426 62.142s-68.651 49.684-95.476 79.048c-26.826 29.364-47.54 61.986-62.143 97.857-14.603 35.873-21.904 75.397-21.904 118.572v177.619h-83.334v-720.953c0-13.653 3.571-24.205 10.714-31.666s17.539-11.191 31.191-11.191zM68.943 710.515h218.571c16.825 0 27.381 5 31.667 15s1.825 21.508-7.381 34.524l-106.667 151.905c-7.619 10.794-16.508 16.27-26.666 16.429s-19.206-5.317-27.143-16.429l-106.667-151.428c-9.206-13.333-11.746-25-7.619-35s14.762-15 31.905-15z" />
<glyph unicode="&#xe922;" glyph-name="Group-290" d="M938.719 920.346c-11.764 0-22.847-2.255-33.238-6.765s-21.667-9.706-33.822-15.588l-755.883-367.059c-25.098-12.157-42.353-24.313-51.765-36.471s-14.117-26.078-14.117-41.765c0-15.686 4.706-29.607 14.117-41.765s26.667-24.51 51.765-37.059l755.883-366.472c12.547-6.277 24.022-11.571 34.412-15.884s21.468-6.469 33.232-6.469c21.57 0 38.629 7.65 51.176 22.944s18.824 35.683 18.824 61.175v767.060c0 25.49-6.373 45.882-19.113 61.177-12.746 15.294-29.901 22.941-51.471 22.941zM908.716 808.581c3.921 0 5.885-2.353 5.885-7.059l0.584-697.652c0-4.698-1.958-7.054-5.879-7.054-1.175 0-2.355 0.295-3.53 0.879-1.175 0.59-2.355 1.084-3.53 1.47l-720.588 347.063c-1.569 0.392-2.843 1.176-3.824 2.353s-1.47 2.549-1.47 4.118c0 1.569 0.49 2.843 1.47 3.824s2.255 1.862 3.824 2.647l719.998 346.471c1.175 0.784 2.355 1.47 3.53 2.059s2.355 0.882 3.53 0.882z" />
<glyph unicode="&#xe923;" glyph-name="Group-291" d="M908.487 920.346c-11.77 0-22.847-2.255-33.238-6.765-10.397-4.51-21.667-9.706-33.822-15.588l-755.887-367.059c-25.098-12.157-42.353-24.313-51.764-36.471s-14.118-26.078-14.118-41.765c0-15.686 4.706-29.607 14.118-41.765s26.667-24.51 51.764-37.059l755.887-366.472c12.547-6.277 24.016-11.571 34.412-15.884 10.391-4.313 21.468-6.469 33.232-6.469 21.564 0 38.623 7.65 51.176 22.944 12.547 15.294 18.824 35.683 18.824 61.175v767.060c0 25.49-6.373 45.882-19.113 61.177-12.746 15.294-29.907 22.941-51.471 22.941z" />
<glyph unicode="&#xe924;" glyph-name="Group-292" d="M525.912-43.057c66.35 0 128.814 12.702 187.382 38.098 58.573 25.395 110.241 60.475 154.999 105.238 44.763 44.763 79.843 96.427 105.238 154.999 25.4 58.573 38.098 121.032 38.098 187.382s-12.698 128.81-38.098 187.381c-25.395 58.571-60.475 110.238-105.238 155-44.759 44.762-96.505 79.841-155.238 105.238-58.729 25.397-121.266 38.095-187.616 38.095s-128.81-12.698-187.382-38.095c-58.571-25.397-110.159-60.476-154.762-105.238s-79.603-96.429-105-155c-25.397-58.571-38.095-121.032-38.095-187.381s12.698-128.809 38.095-187.382c25.397-58.573 60.476-110.236 105.238-154.999s96.429-79.843 155-105.238c58.571-25.395 121.032-38.098 187.379-38.098zM525.912 37.898c-56.188 0-108.728 10.479-157.617 31.427-48.889 20.953-91.825 49.922-128.81 86.903-36.984 36.986-65.872 79.921-86.666 128.809s-31.191 101.43-31.191 157.623c0 56.191 10.397 108.73 31.191 157.619s49.604 91.905 86.429 129.048c36.825 37.143 79.683 66.111 128.571 86.905s101.429 31.19 157.62 31.19c56.188 0 108.729-10.397 157.618-31.19s91.906-49.762 129.048-86.905c37.142-37.143 66.189-80.159 87.142-129.048s31.427-101.428 31.427-157.619c0-56.193-10.396-108.734-31.188-157.623-20.797-48.889-49.684-91.824-86.669-128.809-36.986-36.981-79.999-65.95-129.048-86.903-49.045-20.948-101.664-31.427-157.857-31.427zM333.056 416.471l271.43-160.002c11.113-6.666 21.826-7.856 32.139-3.569 10.318 4.286 15.477 12.303 15.477 24.044v330.955c0 11.429-5.398 19.207-16.189 23.334s-21.27 3.174-31.427-2.857l-271.43-160.953c-9.841-5.398-14.762-13.731-14.762-25s4.921-19.919 14.762-25.951z" />
<glyph unicode="&#xe925;" d="M501.155-43.057c66.35 0 128.809 12.702 187.382 38.098s110.236 60.475 154.999 105.238c44.763 44.763 79.843 96.427 105.238 154.999s38.098 121.032 38.098 187.382c0 66.349-12.702 128.81-38.098 187.381s-60.475 110.238-105.238 155c-44.763 44.762-96.51 79.841-155.238 105.238s-121.271 38.095-187.621 38.095c-66.348 0-128.808-12.698-187.38-38.095s-110.159-60.476-154.762-105.238c-44.603-44.762-79.603-96.429-105-155s-38.095-121.032-38.095-187.381c0-66.35 12.698-128.809 38.095-187.382s60.476-110.236 105.238-154.999c44.762-44.763 96.429-79.843 155-105.238s121.032-38.098 187.382-38.098z" />
<glyph unicode="&#xe926;" d="M304.012 415.515c-10.159 6.349-15.238 15.321-15.238 26.907s5.080 20.241 15.238 25.956l279.522 165.711c10.479 6.35 21.353 7.382 32.617 3.095 11.274-4.286 16.906-12.302 16.906-24.047v-341.431c0-11.742-5.393-19.919-16.189-24.522-10.791-4.603-21.904-3.413-33.334 3.569l-279.522 164.762z" />
<glyph unicode="&#xe927;" glyph-name="Group-294" d="M208.859-44.954h638.42c55.086 0 96.402 13.598 123.947 40.788 27.546 27.195 41.316 67.983 41.316 122.368v642.633c0 54.386-13.77 95.176-41.316 122.369s-68.861 40.79-123.947 40.79h-638.42c-55.088 0-96.404-13.596-123.948-40.79s-41.316-67.982-41.316-122.369v-642.633c0-54.385 13.772-95.173 41.316-122.368 27.544-27.19 68.86-40.788 123.948-40.788zM209.911 39.78c-26.316 0-46.491 6.931-60.526 20.793s-21.052 34.471-21.052 61.839v634.214c0 27.368 7.018 47.982 21.052 61.842s34.211 20.789 60.526 20.789h636.317c25.961 0 46.048-6.93 60.26-20.789s21.315-34.474 21.315-61.842v-634.214c0-27.368-7.103-47.977-21.315-61.839s-34.299-20.793-60.26-20.793h-636.317zM316.227 411.362l300-176.845c12.283-7.367 24.123-8.682 35.527-3.945s17.106 13.598 17.106 26.575v365.793c0 12.631-5.966 21.228-17.898 25.79-11.927 4.561-23.509 3.509-34.735-3.158l-300-177.895c-10.877-5.965-16.316-15.175-16.316-27.631s5.439-22.017 16.316-28.684z" />
<glyph unicode="&#xe928;" glyph-name="Group-295" d="M184.543-44.954h638.419c55.091 0 96.407 13.598 123.947 40.788 27.546 27.195 41.316 67.983 41.316 122.368v642.633c0 54.386-13.77 95.176-41.316 122.369-27.54 27.193-68.856 40.79-123.947 40.79h-638.419c-55.088 0-96.404-13.596-123.948-40.79s-41.316-67.982-41.316-122.369v-642.633c0-54.385 13.772-95.173 41.316-122.368 27.543-27.19 68.86-40.788 123.948-40.788zM286.648 410.311c-11.228 7.017-16.842 16.928-16.842 29.735s5.614 22.368 16.842 28.684l308.948 183.158c11.577 7.018 23.595 8.158 36.050 3.421 12.46-4.737 18.685-13.597 18.685-26.579v-377.37c0-12.978-5.961-22.016-17.893-27.104s-24.21-3.773-36.842 3.945l-308.948 182.11z" />
<glyph unicode="&#xe929;" glyph-name="Group-296" d="M943.435 920.346c-11.77 0-22.847-2.255-33.238-6.765-10.397-4.51-21.667-9.706-33.822-15.588l-755.886-367.059c-25.098-12.157-42.353-24.313-51.765-36.471s-14.118-26.078-14.118-41.765c0-15.686 4.706-29.607 14.118-41.765s26.667-24.51 51.765-37.059l755.886-366.472c12.547-6.277 24.016-11.571 34.412-15.884 10.391-4.313 21.468-6.469 33.232-6.469 21.564 0 38.623 7.65 51.176 22.944 12.547 15.294 18.824 35.683 18.824 61.175v767.060c0 25.49-6.373 45.882-19.113 61.177-12.746 15.294-29.907 22.941-51.471 22.941zM913.432 808.581c3.921 0 5.885-2.353 5.885-7.059l0.584-697.652c0-4.698-1.964-7.054-5.879-7.054-1.181 0-2.355 0.295-3.53 0.879-1.181 0.59-2.355 1.084-3.53 1.47l-720.591 347.063c-1.569 0.392-2.843 1.176-3.824 2.353s-1.47 2.549-1.47 4.118c0 1.569 0.49 2.843 1.47 3.824s2.255 1.862 3.824 2.647l720.001 346.471c1.175 0.784 2.349 1.47 3.53 2.059 1.175 0.588 2.349 0.882 3.53 0.882z" />
<glyph unicode="&#xe92a;" glyph-name="Group-297" d="M913.197 920.346c-11.764 0-22.847-2.255-33.238-6.765s-21.667-9.706-33.822-15.588l-755.884-367.059c-25.098-12.157-42.353-24.313-51.765-36.471s-14.118-26.078-14.118-41.765c0-15.686 4.706-29.607 14.118-41.765s26.667-24.51 51.765-37.059l755.884-366.472c12.547-6.277 24.022-11.571 34.412-15.884s21.468-6.469 33.232-6.469c21.57 0 38.629 7.65 51.176 22.944s18.824 35.683 18.824 61.175v767.060c0 25.49-6.373 45.882-19.113 61.177-12.746 15.294-29.901 22.941-51.471 22.941z" />
<glyph unicode="&#xe92b;" glyph-name="Group-298" d="M529.735-43.057c66.35 0 128.809 12.702 187.377 38.098 58.573 25.395 110.241 60.475 154.999 105.238 44.763 44.763 79.843 96.427 105.238 154.999 25.4 58.573 38.098 121.032 38.098 187.382s-12.698 128.81-38.098 187.381c-25.395 58.571-60.475 110.238-105.238 155-44.759 44.762-96.505 79.841-155.238 105.238-58.729 25.397-121.266 38.095-187.616 38.095s-128.81-12.698-187.382-38.095c-58.571-25.397-110.159-60.476-154.762-105.238s-79.603-96.429-105-155c-25.397-58.571-38.095-121.032-38.095-187.381s12.699-128.809 38.095-187.382c25.397-58.573 60.476-110.236 105.238-154.999s96.429-79.843 155-105.238c58.571-25.395 121.032-38.098 187.384-38.098zM529.735 37.898c-56.193 0-108.733 10.479-157.621 31.427-48.889 20.953-91.825 49.922-128.81 86.903-36.984 36.986-65.873 79.921-86.666 128.809s-31.191 101.43-31.191 157.623c0 56.191 10.397 108.73 31.191 157.619s49.603 91.905 86.429 129.048c36.825 37.143 79.682 66.111 128.571 86.905s101.429 31.19 157.62 31.19c56.188 0 108.729-10.397 157.618-31.19s91.906-49.762 129.048-86.905c37.142-37.143 66.189-80.159 87.142-129.048s31.427-101.428 31.427-157.619c0-56.193-10.396-108.734-31.188-157.623-20.797-48.889-49.684-91.824-86.669-128.809-36.986-36.981-79.999-65.95-129.048-86.903-49.045-20.948-101.664-31.427-157.852-31.427zM336.875 416.471l271.43-160.002c11.113-6.666 21.826-7.856 32.139-3.569 10.318 4.286 15.477 12.303 15.477 24.044v330.955c0 11.429-5.398 19.207-16.189 23.334s-21.27 3.174-31.427-2.857l-271.43-160.953c-9.842-5.398-14.762-13.731-14.762-25s4.921-19.919 14.762-25.951z" />
<glyph unicode="&#xe92c;" d="M504.969-43.057c66.35 0 128.814 12.702 187.382 38.098 58.573 25.395 110.241 60.475 154.999 105.238 44.763 44.763 79.843 96.427 105.238 154.999 25.4 58.573 38.098 121.032 38.098 187.382s-12.698 128.81-38.098 187.381c-25.395 58.571-60.475 110.238-105.238 155-44.759 44.762-96.505 79.841-155.238 105.238-58.729 25.397-121.266 38.095-187.616 38.095s-128.811-12.698-187.382-38.095c-58.572-25.397-110.159-60.476-154.762-105.238s-79.603-96.429-105-155c-25.397-58.571-38.095-121.032-38.095-187.381s12.698-128.809 38.095-187.382c25.397-58.573 60.476-110.236 105.238-154.999s96.429-79.843 155-105.238c58.571-25.395 121.032-38.098 187.379-38.098z" />
<glyph unicode="&#xe92d;" d="M307.828 415.515c-10.159 6.349-15.238 15.321-15.238 26.907s5.079 20.241 15.238 25.956l279.524 165.711c10.479 6.35 21.348 7.382 32.617 3.095s16.906-12.302 16.906-24.047v-341.431c0-11.742-5.398-19.919-16.189-24.522s-21.904-3.413-33.334 3.569l-279.524 164.762z" />
<glyph unicode="&#xe92e;" glyph-name="Group-300" horiz-adv-x="970" d="M165.263-60.114h638.42c55.086 0 96.402 13.592 123.947 40.788 27.546 27.19 41.316 67.977 41.316 122.368v642.63c0 54.386-13.77 95.176-41.316 122.369s-68.861 40.79-123.947 40.79h-638.42c-55.088 0-96.404-13.596-123.948-40.79s-41.316-67.982-41.316-122.369v-642.63c0-54.391 13.772-95.178 41.316-122.368 27.544-27.195 68.86-40.788 123.948-40.788zM166.316 24.619c-26.316 0-46.491 6.931-60.526 20.793-14.035 13.856-21.052 34.471-21.052 61.839v634.21c0 27.368 7.018 47.982 21.052 61.842s34.211 20.789 60.526 20.789h636.317c25.961 0 46.048-6.93 60.26-20.789s21.315-34.474 21.315-61.842v-634.21c0-27.368-7.103-47.982-21.315-61.839-14.212-13.862-34.299-20.793-60.26-20.793h-636.317zM272.631 396.196l300-176.839c12.283-7.373 24.123-8.688 35.527-3.945 11.404 4.732 17.106 13.592 17.106 26.575v365.789c0 12.631-5.966 21.228-17.898 25.79-11.927 4.561-23.509 3.509-34.735-3.158l-300-177.895c-10.877-5.965-16.316-15.175-16.316-27.631 0-12.458 5.439-22.019 16.316-28.685z" />
<glyph unicode="&#xe92f;" glyph-name="Group-301" d="M192.849-60.114h638.418c55.091 0 96.407 13.592 123.947 40.788 27.546 27.19 41.316 67.977 41.316 122.368v642.63c0 54.386-13.77 95.176-41.316 122.369-27.54 27.193-68.856 40.79-123.947 40.79h-638.418c-55.088 0-96.404-13.596-123.948-40.79s-41.316-67.982-41.316-122.369v-642.63c0-54.391 13.772-95.178 41.316-122.368 27.544-27.195 68.86-40.788 123.948-40.788zM294.954 395.145c-11.228 7.017-16.842 16.928-16.842 29.736s5.614 22.368 16.842 28.684l308.947 183.158c11.577 7.018 23.595 8.158 36.050 3.421 12.46-4.737 18.685-13.597 18.685-26.579v-377.367c0-12.983-5.961-22.016-17.893-27.104s-24.21-3.773-36.842 3.945l-308.947 182.105z" />
<glyph unicode="&#xe930;" glyph-name="Group-302" horiz-adv-x="964" d="M72.603-31.895c11.765 0 22.843 2.156 33.235 6.469s21.667 9.608 33.823 15.884l755.887 366.466c25.094 12.551 42.351 24.904 51.76 37.061s14.119 26.078 14.119 41.765c0 15.686-4.71 29.608-14.119 41.765s-26.666 24.314-51.76 36.471l-755.887 367.059c-12.549 5.883-24.019 11.078-34.412 15.588s-21.47 6.765-33.235 6.765c-21.569 0-38.726-7.647-51.471-22.941s-19.118-35.686-19.118-61.176l0.588-767.056c0-25.492 6.373-45.887 19.118-61.175 12.745-15.3 29.902-22.944 51.47-22.944zM102.014 79.872c-3.921 0-5.882 2.349-5.882 7.054v697.648c0 4.706 1.961 7.059 5.882 7.059 1.176 0 2.353-0.294 3.53-0.882s2.353-1.275 3.529-2.059l720.589-346.471c1.566-0.784 2.843-1.667 3.825-2.647 0.976-0.981 1.47-2.255 1.47-3.824s-0.494-2.941-1.47-4.118c-0.982-1.176-2.259-1.961-3.825-2.353l-720.589-347.058c-1.176-0.392-2.353-0.879-3.529-1.47s-2.353-0.879-3.53-0.879z" />
<glyph unicode="&#xe931;" glyph-name="Group-303" d="M100.963-31.895c11.765 0 22.843 2.156 33.235 6.469s21.667 9.608 33.823 15.884l755.885 366.466c25.1 12.551 42.351 24.904 51.76 37.061 9.415 12.157 14.119 26.078 14.119 41.765s-4.704 29.608-14.119 41.765c-9.409 12.157-26.66 24.314-51.76 36.471l-755.885 367.059c-12.549 5.883-24.020 11.078-34.412 15.588s-21.471 6.765-33.235 6.765c-21.569 0-38.726-7.647-51.471-22.941s-19.118-35.686-19.118-61.176l0.588-767.056c0-25.492 6.373-45.887 19.118-61.175 12.745-15.3 29.902-22.944 51.471-22.944z" />
<glyph unicode="&#xe932;" glyph-name="Group-304" d="M532.787-56.773c66.35 0 128.809 12.698 187.377 38.098 58.573 25.395 110.241 60.475 154.999 105.238 44.763 44.759 79.843 96.427 105.238 154.999 25.4 58.568 38.098 121.027 38.098 187.377s-12.698 128.811-38.098 187.383c-25.395 58.571-60.475 110.238-105.238 155-44.759 44.761-96.505 79.841-155.238 105.238-58.729 25.397-121.266 38.095-187.616 38.095-66.349 0-128.809-12.698-187.381-38.095s-110.159-60.476-154.762-105.238c-44.603-44.762-79.603-96.429-105-155s-38.095-121.032-38.095-187.383c0-66.35 12.698-128.809 38.095-187.377 25.397-58.573 60.476-110.241 105.238-154.999 44.762-44.763 96.429-79.843 155-105.238 58.572-25.4 121.032-38.098 187.383-38.098zM532.787 24.181c-56.192 0-108.732 10.474-157.62 31.427-48.889 20.948-91.825 49.918-128.81 86.903-36.984 36.981-65.872 79.921-86.666 128.809s-31.191 101.43-31.191 157.618c0 56.192 10.397 108.732 31.191 157.62s49.604 91.905 86.429 129.048c36.825 37.143 79.683 66.111 128.571 86.905s101.429 31.19 157.619 31.19c56.193 0 108.729-10.397 157.618-31.19s91.906-49.762 129.048-86.905c37.147-37.143 66.194-80.159 87.142-129.048 20.953-48.889 31.427-101.429 31.427-157.62 0-56.188-10.396-108.729-31.188-157.618s-49.684-91.828-86.669-128.809c-36.981-36.986-79.999-65.955-129.048-86.903-49.045-20.953-101.664-31.427-157.852-31.427zM443.738 242.751l271.428 160.002c9.84 6.027 14.682 14.599 14.521 25.712-0.156 11.108-4.998 19.524-14.521 25.234l-271.428 160.955c-10.159 6.031-20.635 6.984-31.429 2.857s-16.19-11.905-16.19-23.334v-330.952c0-11.747 5.159-19.763 15.477-24.044 10.318-4.291 21.032-3.101 32.143 3.569z" />
<glyph unicode="&#xe933;" d="M506.222-56.773c66.35 0 128.809 12.698 187.382 38.098 58.573 25.395 110.236 60.475 154.999 105.238 44.763 44.759 79.843 96.427 105.238 154.999 25.395 58.568 38.098 121.027 38.098 187.377s-12.702 128.811-38.098 187.383c-25.395 58.571-60.475 110.238-105.238 155s-96.51 79.841-155.238 105.238c-58.729 25.397-121.271 38.095-187.621 38.095-66.347 0-128.807-12.698-187.379-38.095s-110.159-60.476-154.762-105.238c-44.603-44.762-79.603-96.429-105-155s-38.095-121.032-38.095-187.383c0-66.35 12.698-128.809 38.095-187.377 25.397-58.573 60.476-110.241 105.238-154.999 44.762-44.763 96.429-79.843 155-105.238 58.572-25.4 121.032-38.098 187.381-38.098z" />
<glyph unicode="&#xe934;" d="M415.745 237.036c-11.428-6.983-22.46-8.172-33.095-3.569s-15.952 12.776-15.952 24.522v341.427c0 11.746 5.556 19.682 16.667 23.809s21.905 3.174 32.381-2.857l280.004-165.713c9.84-6.032 14.838-14.765 14.999-26.19 0.156-11.43-4.842-20.319-14.999-26.668l-280.004-164.762z" />
<glyph unicode="&#xe935;" glyph-name="Group-306" d="M212.464-60.114h638.421c55.086 0 96.402 13.592 123.947 40.788 27.546 27.19 41.316 67.977 41.316 122.368v642.63c0 54.386-13.77 95.176-41.316 122.369s-68.861 40.79-123.947 40.79h-638.421c-55.088 0-96.404-13.596-123.947-40.79s-41.316-67.982-41.316-122.369v-642.63c0-54.391 13.772-95.178 41.316-122.368 27.543-27.195 68.859-40.788 123.947-40.788zM213.516 24.619c-26.316 0-46.491 6.931-60.526 20.793-14.035 13.856-21.052 34.471-21.052 61.839v634.21c0 27.368 7.018 47.982 21.052 61.842s34.211 20.789 60.526 20.789h636.317c25.961 0 46.048-6.93 60.26-20.789s21.315-34.474 21.315-61.842v-634.21c0-27.368-7.103-47.982-21.315-61.839-14.212-13.862-34.299-20.793-60.26-20.793h-636.317zM434.042 219.357l299.999 176.839c10.881 6.667 16.233 16.141 16.055 28.422s-5.53 21.579-16.055 27.895l-299.999 177.895c-11.228 6.667-22.807 7.719-34.737 3.158s-17.895-13.158-17.895-25.79v-365.789c0-12.983 5.702-21.844 17.105-26.575 11.404-4.743 23.246-3.428 35.526 3.945z" />
<glyph unicode="&#xe936;" glyph-name="Group-307" d="M186.155-60.114h638.419c55.091 0 96.407 13.592 123.947 40.788 27.546 27.19 41.316 67.977 41.316 122.368v642.63c0 54.386-13.77 95.176-41.316 122.369-27.54 27.193-68.856 40.79-123.947 40.79h-638.419c-55.088 0-96.404-13.596-123.947-40.79s-41.316-67.982-41.316-122.369v-642.63c0-54.391 13.772-95.178 41.316-122.368 27.543-27.195 68.859-40.788 123.947-40.788zM405.628 213.041c-12.631-7.718-24.824-9.033-36.579-3.945s-17.632 14.12-17.632 27.104v377.367c0 12.982 6.141 21.755 18.421 26.316s24.211 3.509 35.789-3.158l309.474-183.158c10.876-6.666 16.406-16.316 16.578-28.947 0.178-12.631-5.346-22.456-16.578-29.473l-309.474-182.105z" />
<glyph unicode="&#xe937;" glyph-name="Group-308" d="M125.357-31.895c11.765 0 22.843 2.156 33.235 6.469s21.667 9.608 33.823 15.884l755.887 366.466c25.094 12.551 42.351 24.904 51.76 37.061s14.119 26.078 14.119 41.765c0 15.686-4.71 29.608-14.119 41.765s-26.666 24.314-51.76 36.471l-755.887 367.059c-12.549 5.883-24.020 11.078-34.412 15.588s-21.471 6.765-33.235 6.765c-21.569 0-38.726-7.647-51.471-22.941s-19.118-35.686-19.118-61.176l0.588-767.056c0-25.492 6.372-45.887 19.117-61.175 12.745-15.3 29.902-22.944 51.471-22.944zM154.769 79.872c-3.921 0-5.882 2.349-5.882 7.054v697.648c0 4.706 1.961 7.059 5.882 7.059 1.176 0 2.353-0.294 3.53-0.882 1.176-0.588 2.352-1.275 3.529-2.059l720.589-346.471c1.566-0.784 2.843-1.667 3.825-2.647 0.976-0.981 1.47-2.255 1.47-3.824s-0.494-2.941-1.47-4.118c-0.982-1.176-2.259-1.961-3.825-2.353l-720.589-347.058c-1.177-0.392-2.353-0.879-3.529-1.47-1.177-0.59-2.353-0.879-3.53-0.879z" />
<glyph unicode="&#xe938;" glyph-name="Group-309" d="M93.482-31.895c11.765 0 22.843 2.156 33.235 6.469s21.667 9.608 33.823 15.884l755.885 366.466c25.1 12.551 42.351 24.904 51.76 37.061 9.415 12.157 14.119 26.078 14.119 41.765s-4.704 29.608-14.119 41.765c-9.409 12.157-26.66 24.314-51.76 36.471l-755.885 367.059c-12.549 5.883-24.019 11.078-34.412 15.588s-21.47 6.765-33.235 6.765c-21.569 0-38.726-7.647-51.471-22.941s-19.118-35.686-19.118-61.176l0.588-767.056c0-25.492 6.373-45.887 19.118-61.175 12.745-15.3 29.902-22.944 51.471-22.944z" />
<glyph unicode="&#xe939;" glyph-name="Group-310" d="M526.731-56.773c66.35 0 128.809 12.698 187.377 38.098 58.573 25.395 110.241 60.475 154.999 105.238 44.763 44.759 79.843 96.427 105.238 154.999 25.4 58.568 38.098 121.027 38.098 187.377s-12.698 128.811-38.098 187.383c-25.395 58.571-60.475 110.238-105.238 155-44.759 44.761-96.505 79.841-155.238 105.238-58.729 25.397-121.266 38.095-187.616 38.095s-128.809-12.698-187.381-38.095c-58.572-25.397-110.159-60.476-154.762-105.238s-79.603-96.429-105-155c-25.397-58.571-38.095-121.032-38.095-187.383s12.698-128.809 38.095-187.377c25.397-58.573 60.476-110.241 105.238-154.999 44.762-44.763 96.429-79.843 155-105.238 58.571-25.4 121.032-38.098 187.383-38.098zM526.731 24.181c-56.192 0-108.732 10.474-157.62 31.427-48.889 20.948-91.826 49.918-128.81 86.903-36.984 36.981-65.873 79.921-86.666 128.809s-31.191 101.43-31.191 157.618c0 56.192 10.397 108.732 31.191 157.62s49.603 91.905 86.429 129.048c36.825 37.143 79.682 66.111 128.571 86.905s101.429 31.19 157.619 31.19c56.188 0 108.729-10.397 157.618-31.19s91.906-49.762 129.048-86.905c37.147-37.143 66.194-80.159 87.142-129.048 20.953-48.889 31.427-101.429 31.427-157.62 0-56.188-10.396-108.729-31.188-157.618s-49.684-91.828-86.669-128.809c-36.981-36.986-79.999-65.955-129.048-86.903-49.045-20.953-101.664-31.427-157.852-31.427zM437.682 242.751l271.428 160.002c9.84 6.027 14.682 14.599 14.521 25.712-0.156 11.108-4.998 19.524-14.521 25.234l-271.428 160.955c-10.159 6.031-20.635 6.984-31.429 2.857s-16.19-11.905-16.19-23.334v-330.952c0-11.747 5.159-19.763 15.477-24.044 10.317-4.291 21.031-3.101 32.143 3.569z" />
<glyph unicode="&#xe93a;" d="M500.165-56.773c66.35 0 128.814 12.698 187.382 38.098 58.573 25.395 110.241 60.475 154.999 105.238 44.763 44.759 79.843 96.427 105.238 154.999 25.4 58.568 38.098 121.027 38.098 187.377s-12.698 128.811-38.098 187.383c-25.395 58.571-60.475 110.238-105.238 155-44.759 44.761-96.505 79.841-155.238 105.238-58.729 25.397-121.271 38.095-187.616 38.095-66.351 0-128.811-12.698-187.383-38.095s-110.159-60.476-154.762-105.238c-44.603-44.762-79.603-96.429-105-155s-38.095-121.032-38.095-187.383c0-66.35 12.698-128.809 38.095-187.377 25.397-58.573 60.476-110.241 105.238-154.999 44.762-44.763 96.429-79.843 155-105.238 58.571-25.4 121.032-38.098 187.38-38.098z" />
<glyph unicode="&#xe93b;" d="M409.691 237.036c-11.429-6.983-22.46-8.172-33.095-3.569s-15.952 12.776-15.952 24.522v341.427c0 11.746 5.555 19.682 16.667 23.809s21.904 3.174 32.381-2.857l280.003-165.713c9.84-6.032 14.838-14.765 14.999-26.19 0.161-11.43-4.842-20.319-14.999-26.668l-280.003-164.762z" />
<glyph unicode="&#xe93c;" glyph-name="Group-312" d="M205.773-60.114h638.418c55.091 0 96.407 13.592 123.947 40.788 27.546 27.19 41.316 67.977 41.316 122.368v642.63c0 54.386-13.77 95.176-41.316 122.369-27.54 27.193-68.856 40.79-123.947 40.79h-638.418c-55.088 0-96.404-13.596-123.948-40.79s-41.316-67.982-41.316-122.369v-642.63c0-54.391 13.772-95.178 41.316-122.368 27.544-27.195 68.86-40.788 123.948-40.788zM206.826 24.619c-26.316 0-46.491 6.931-60.526 20.793-14.035 13.856-21.052 34.471-21.052 61.839v634.21c0 27.368 7.017 47.982 21.052 61.842s34.211 20.789 60.526 20.789h636.314c25.966 0 46.053-6.93 60.26-20.789 14.212-13.86 21.315-34.474 21.315-61.842v-634.21c0-27.368-7.103-47.982-21.315-61.839-14.207-13.862-34.293-20.793-60.26-20.793h-636.314zM427.352 219.357l299.995 176.839c10.881 6.667 16.233 16.141 16.055 28.422-0.172 12.281-5.524 21.579-16.055 27.895l-299.995 177.895c-11.228 6.667-22.807 7.719-34.737 3.158s-17.895-13.158-17.895-25.79v-365.789c0-12.983 5.702-21.844 17.105-26.575 11.404-4.743 23.246-3.428 35.526 3.945z" />
<glyph unicode="&#xe93d;" glyph-name="Group-313" d="M179.464-60.114h638.421c55.086 0 96.402 13.592 123.947 40.788 27.546 27.19 41.316 67.977 41.316 122.368v642.63c0 54.386-13.77 95.176-41.316 122.369s-68.861 40.79-123.947 40.79h-638.421c-55.088 0-96.404-13.596-123.948-40.79s-41.316-67.982-41.316-122.369v-642.63c0-54.391 13.772-95.178 41.316-122.368 27.544-27.195 68.86-40.788 123.948-40.788zM398.937 213.041c-12.631-7.718-24.824-9.033-36.579-3.945s-17.632 14.12-17.632 27.104v377.367c0 12.982 6.14 21.755 18.421 26.316s24.211 3.509 35.789-3.158l309.477-183.158c10.876-6.666 16.4-16.316 16.578-28.947s-5.352-22.456-16.578-29.473l-309.477-182.105z" />
<glyph unicode="&#xe93e;" glyph-name="Group-232" horiz-adv-x="745" d="M705.406 496.012c0 10.909-4.091 20.757-12.274 29.545l-301.817 302.273c-4.242 4.546-8.939 7.955-14.091 10.227s-10.606 3.409-16.364 3.409c-5.454 0-10.757-1.136-15.908-3.409s-10-5.682-14.545-10.227l-301.364-302.273c-8.485-8.788-12.727-18.636-12.727-29.545 0-11.213 3.712-20.606 11.136-28.183 7.424-7.573 16.742-11.362 27.955-11.362 5.454 0 10.682 0.908 15.682 2.728 5 1.815 9.318 4.543 12.955 8.183l103.636 101.816 163.182 178.636-25.909 9.091-4.546-135.454v-599.092c0-11.818 3.788-21.439 11.364-28.863s17.273-11.134 29.091-11.134c11.818 0 21.516 3.71 29.091 11.134s11.364 17.045 11.364 28.863v599.092l-4.545 135.454-25.455-9.091 162.724-178.636 103.638-101.816c3.64-3.64 7.955-6.367 12.954-8.183 5.004-1.82 10.231-2.728 15.681-2.728 11.217 0 20.536 3.789 27.955 11.362 7.429 7.578 11.138 16.97 11.138 28.183zM705.406 881.92c0 11.818-3.635 21.591-10.91 29.318-7.27 7.727-16.668 11.591-28.183 11.591h-609.997c-11.818 0-21.439-3.864-28.864-11.591s-11.136-17.5-11.136-29.318c0-11.818 3.712-21.515 11.136-29.091s17.045-11.364 28.864-11.364h609.997c11.515 0 20.913 3.788 28.183 11.364 7.275 7.576 10.91 17.273 10.91 29.091z" />
<glyph unicode="&#xe93f;" glyph-name="Group-233" horiz-adv-x="910" d="M447.795-62.652c14.445 0 26.296 4.625 35.556 13.887s13.889 21.111 13.889 35.556v561.112l-3.889 118.889 167.22-182.778 124.444-122.775c4.443-4.449 9.813-7.873 16.111-10.28 6.298-2.412 12.783-3.612 19.445-3.612 14.074 0 25.651 4.722 34.725 14.165 9.074 9.449 13.614 21.020 13.614 34.724 0 6.667-1.388 13.055-4.17 19.166-2.776 6.111-6.94 12.13-12.498 18.056l-367.224 367.778c-5.185 5.555-11.018 9.814-17.5 12.778s-13.055 4.444-19.722 4.444c-7.037 0-13.704-1.481-20-4.444s-12.037-7.223-17.222-12.778l-367.778-367.778c-5.185-5.926-9.167-11.945-11.944-18.056s-4.167-12.5-4.167-19.166c0-13.704 4.537-25.275 13.611-34.724 9.074-9.444 20.648-14.165 34.722-14.165 6.667 0 13.148 1.2 19.445 3.612 6.296 2.406 11.667 5.831 16.111 10.28l124.444 122.775 167.222 183.333-4.444-119.444v-561.112c0-14.444 4.722-26.294 14.166-35.556s21.39-13.887 35.834-13.887zM72.24 817.347h749.446c14.444 0 26.203 4.63 35.277 13.889s13.608 21.111 13.608 35.556c0 14.445-4.534 26.389-13.608 35.834s-20.833 14.166-35.277 14.166h-749.446c-14.074 0-25.556-4.722-34.445-14.166s-13.333-21.389-13.333-35.834c0-14.445 4.444-26.296 13.333-35.556s20.37-13.889 34.445-13.889z" />
<glyph unicode="&#xe940;" glyph-name="Group-234" d="M513.887-48.464c66.35 0 128.809 12.698 187.382 38.098 58.573 25.395 110.236 60.475 154.999 105.238 44.763 44.759 79.843 96.427 105.238 154.999 25.395 58.568 38.098 121.027 38.098 187.377s-12.702 128.812-38.098 187.383c-25.395 58.571-60.475 110.238-105.238 155s-96.51 79.841-155.238 105.238c-58.729 25.397-121.271 38.095-187.621 38.095-66.347 0-128.808-12.699-187.379-38.095s-110.159-60.476-154.762-105.238c-44.603-44.762-79.603-96.429-105-155s-38.095-121.032-38.095-187.383c0-66.35 12.698-128.809 38.095-187.377 25.397-58.573 60.476-110.241 105.238-154.999 44.762-44.763 96.429-79.843 155-105.238 58.571-25.4 121.032-38.098 187.381-38.098zM513.887 32.49c-56.191 0-108.73 10.474-157.619 31.427-48.889 20.948-91.825 49.918-128.81 86.903-36.984 36.981-65.873 79.921-86.666 128.809s-31.191 101.43-31.191 157.618c0 56.192 10.397 108.732 31.191 157.621s49.603 91.905 86.429 129.048c36.825 37.143 79.682 66.111 128.571 86.905s101.429 31.19 157.617 31.19c56.193 0 108.734-10.397 157.623-31.19s91.902-49.762 129.048-86.905c37.142-37.143 66.189-80.159 87.142-129.048 20.948-48.889 31.427-101.429 31.427-157.621 0-56.188-10.396-108.729-31.188-157.618-20.797-48.889-49.688-91.828-86.669-128.809-36.986-36.986-80.004-65.955-129.048-86.903-49.045-20.953-101.664-31.427-157.857-31.427zM512.936 152.966c8.884 0 16.345 2.935 22.382 8.806 6.027 5.871 9.045 13.414 9.045 22.621v218.57l-4.759 87.144 83.807-95.238 30.954-31.427c3.174-3.179 6.827-5.559 10.952-7.144 4.125-1.59 8.255-2.38 12.381-2.38 8.889 0 16.189 3.092 21.904 9.284 5.715 6.188 8.572 13.57 8.572 22.143 0 4.442-0.795 8.65-2.38 12.62-1.59 3.969-4.286 7.856-8.094 11.669l-160.953 163.806c-7.305 6.984-15.238 10.476-23.81 10.476-9.206 0-17.145-3.492-23.81-10.476l-160.953-164.284c-2.857-3.179-5.238-6.988-7.143-11.43-1.905-4.447-2.857-8.572-2.857-12.381 0-9.206 2.857-16.75 8.571-22.621s13.174-8.806 22.381-8.806c4.762 0 9.048 0.79 12.857 2.38 3.81 1.585 7.143 3.964 10 7.144l27.619 29.998 86.666 97.143-5.714-87.62v-218.57c0-9.206 2.936-16.75 8.811-22.621 5.871-5.871 13.726-8.806 23.572-8.806zM334.363 620.583h357.622c9.206 0 16.745 3.016 22.616 9.048s8.811 13.491 8.811 22.381c0 9.524-2.94 17.302-8.811 23.334s-13.41 9.047-22.616 9.047h-357.622c-9.207 0-16.746-3.016-22.619-9.047s-8.809-13.81-8.809-23.334c0-8.889 2.936-16.349 8.809-22.381s13.412-9.048 22.619-9.048z" />
<glyph unicode="&#xe941;" d="M523.479-48.937c66.35 0 128.809 12.698 187.377 38.093 58.573 25.395 110.241 60.475 154.999 105.238 44.763 44.763 79.843 96.427 105.238 154.999 25.4 58.573 38.098 121.032 38.098 187.382 0 66.348-12.698 128.808-38.098 187.38-25.395 58.571-60.475 110.238-105.238 155-44.759 44.762-96.505 79.841-155.238 105.238-58.729 25.397-121.266 38.095-187.616 38.095s-128.81-12.698-187.382-38.095c-58.571-25.397-110.159-60.476-154.762-105.238s-79.603-96.429-105-155c-25.397-58.571-38.095-121.032-38.095-187.38 0-66.35 12.698-128.809 38.095-187.382s60.476-110.236 105.238-154.999c44.762-44.763 96.429-79.843 155-105.238s121.032-38.093 187.384-38.093z" />
<glyph unicode="&#xe942;" d="M523.001 143.443c-10.157 0-18.334 3.092-24.522 9.284-6.193 6.188-9.289 14.043-9.289 23.572v224.763l6.193 90.474-89.524-100.475-28.095-30.476c-2.857-3.491-6.27-6.032-10.238-7.621s-8.492-2.38-13.571-2.38c-9.524 0-17.223 3.092-23.096 9.284s-8.809 14.048-8.809 23.572c0 9.523 3.492 17.618 10.476 24.288l165.715 169.523c3.491 3.809 7.3 6.587 11.425 8.333 4.13 1.746 8.572 2.619 13.336 2.619 4.442 0 8.728-1.032 12.854-3.095 4.13-2.064 8.099-4.683 11.908-7.857l165.712-169.045c4.13-3.813 6.988-7.782 8.572-11.908 1.59-4.125 2.38-8.411 2.38-12.859 0-9.206-2.935-16.984-8.806-23.333-5.876-6.349-13.414-9.523-22.621-9.523-4.442 0-8.811 0.79-13.097 2.38s-8.012 4.13-11.186 7.621l-30.476 30.954-87.62 99.521 4.759-89.998v-224.763c0-9.528-3.096-17.384-9.284-23.572-6.188-6.193-13.887-9.284-23.094-9.284zM338.715 625.822c-9.524 0-17.302 3.095-23.334 9.286s-9.048 13.889-9.048 23.095c0 9.842 3.016 17.937 9.048 24.286s13.809 9.524 23.334 9.524h369.045c9.523 0 17.306-3.174 23.337-9.524s9.045-14.444 9.045-24.286c0-9.206-3.013-16.905-9.045-23.095s-13.814-9.286-23.337-9.286h-369.045z" />
<glyph unicode="&#xe943;" glyph-name="Group-236" horiz-adv-x="745" d="M734.292 409.195c0 11.208-3.714 20.601-11.138 28.179s-16.742 11.366-27.955 11.366c-5.455 0-10.682-0.912-15.681-2.728-4.999-1.82-9.318-4.547-12.954-8.183l-103.638-101.818-162.727-178.637 25.455-9.090 4.545 135.457v599.088c0 11.515-3.788 21.060-11.364 28.637s-17.273 11.363-29.091 11.363c-11.818 0-21.515-3.788-29.091-11.363s-11.364-17.121-11.364-28.637v-599.088l4.546-135.457 25.909 9.090-163.182 178.637-103.636 101.818c-3.637 3.635-7.955 6.363-12.955 8.183-5 1.815-10.227 2.728-15.682 2.728-11.212 0-20.53-3.789-27.954-11.366s-11.137-16.97-11.137-28.179c0-10.91 4.243-20.759 12.727-29.547l301.364-302.271c4.545-4.547 9.394-7.959 14.545-10.231s10.454-3.407 15.909-3.407c5.758 0 11.212 1.136 16.364 3.407s9.848 5.683 14.091 10.231l301.819 302.271c8.183 8.788 12.274 18.637 12.274 29.547zM734.292 23.287c0 11.813-3.64 21.513-10.91 29.091-7.275 7.573-16.668 11.362-28.183 11.362h-610c-11.818 0-21.439-3.789-28.863-11.362-7.424-7.578-11.137-17.278-11.137-29.091 0-11.823 3.712-21.592 11.137-29.319s17.045-11.59 28.863-11.59h610c11.515 0 20.908 3.863 28.183 11.59 7.27 7.727 10.91 17.496 10.91 29.319z" />
<glyph unicode="&#xe944;" glyph-name="Group-237" horiz-adv-x="853" d="M426.209 916.792c-14.445 0-26.389-4.63-35.834-13.889s-14.166-21.111-14.166-35.556v-561.109l4.444-119.444-167.222 183.33-124.444 122.778c-4.445 4.445-9.815 7.871-16.111 10.278s-12.778 3.611-19.445 3.611c-14.074 0-25.648-4.722-34.722-14.166s-13.611-21.019-13.611-34.723c0-6.667 1.389-13.055 4.167-19.166s6.759-12.129 11.944-18.055l367.778-367.774c5.185-5.558 10.926-9.819 17.222-12.783s12.963-4.443 20-4.443c6.666 0 13.24 1.479 19.722 4.443s12.314 7.225 17.5 12.783l367.221 367.774c5.558 5.926 9.722 11.944 12.498 18.055 2.782 6.111 4.17 12.5 4.17 19.166 0 13.704-4.534 25.278-13.614 34.723-9.074 9.444-20.651 14.166-34.725 14.166-6.662 0-13.141-1.204-19.445-3.611-6.292-2.407-11.662-5.833-16.111-10.278l-124.444-122.778-167.217-182.778 3.889 118.892v561.109c0 14.444-4.63 26.296-13.889 35.556s-21.111 13.889-35.556 13.889zM50.653 36.79c-14.074 0-25.556-4.631-34.444-13.887-8.889-9.262-13.333-21.111-13.333-35.556 0-14.45 4.444-26.391 13.333-35.834s20.37-14.165 34.444-14.165h749.444c14.444 0 26.203 4.722 35.277 14.165s13.608 21.385 13.608 35.834c0 14.444-4.534 26.294-13.608 35.556-9.074 9.256-20.833 13.887-35.277 13.887h-749.444z" />
<glyph unicode="&#xe945;" glyph-name="Group-238" d="M495.387-48.464c66.35 0 128.809 12.698 187.382 38.098 58.573 25.395 110.236 60.475 154.999 105.238 44.763 44.759 79.843 96.427 105.238 154.999 25.395 58.568 38.098 121.027 38.098 187.377s-12.702 128.812-38.098 187.383c-25.395 58.571-60.475 110.238-105.238 155s-96.51 79.841-155.238 105.238c-58.729 25.397-121.271 38.095-187.621 38.095-66.347 0-128.807-12.699-187.379-38.095s-110.159-60.476-154.762-105.238c-44.603-44.762-79.603-96.429-105-155s-38.095-121.032-38.095-187.383c0-66.35 12.698-128.809 38.095-187.377 25.397-58.573 60.476-110.241 105.238-154.999 44.762-44.763 96.429-79.843 155-105.238 58.572-25.4 121.032-38.098 187.381-38.098zM495.387 32.49c-56.19 0-108.73 10.474-157.619 31.427-48.889 20.948-91.825 49.918-128.81 86.903-36.984 36.981-65.872 79.921-86.666 128.809s-31.191 101.43-31.191 157.618c0 56.192 10.397 108.732 31.191 157.621s49.604 91.905 86.429 129.048c36.825 37.143 79.683 66.111 128.571 86.905s101.429 31.19 157.617 31.19c56.193 0 108.734-10.397 157.623-31.19s91.902-49.762 129.048-86.905c37.142-37.143 66.189-80.159 87.142-129.048 20.948-48.889 31.427-101.429 31.427-157.621 0-56.188-10.396-108.729-31.188-157.618-20.797-48.889-49.688-91.828-86.669-128.809-36.986-36.986-80.004-65.955-129.048-86.903-49.045-20.953-101.664-31.427-157.857-31.427zM494.436 285.823c8.572 0 16.506 3.647 23.81 10.952l160.953 163.811c3.808 3.491 6.505 7.3 8.094 11.425 1.585 4.129 2.38 8.414 2.38 12.859 0 8.572-2.857 15.873-8.572 21.905s-13.015 9.048-21.904 9.048c-4.125 0-8.255-0.714-12.381-2.143s-7.778-3.889-10.952-7.381l-29.998-30-84.763-96.189 4.759 86.665v218.572c0 9.206-3.018 16.825-9.045 22.857-6.037 6.032-13.497 9.048-22.382 9.048-9.843 0-17.7-3.016-23.573-9.048s-8.81-13.651-8.81-22.857v-218.572l5.714-87.142-86.666 96.667-27.619 30c-2.857 3.492-6.19 5.952-10 7.381s-8.095 2.143-12.857 2.143c-9.206 0-16.666-2.936-22.381-8.809s-8.571-13.413-8.571-22.619c0-3.492 0.952-7.54 2.857-12.144s4.286-8.333 7.143-11.191l160.952-164.284c6.667-7.305 14.604-10.952 23.811-10.952zM315.863 185.344h357.622c9.206 0 16.745 3.096 22.616 9.289 5.871 6.188 8.811 13.887 8.811 23.094s-2.94 16.745-8.811 22.621c-5.871 5.871-13.41 8.806-22.616 8.806h-357.622c-9.206 0-16.746-2.935-22.619-8.806-5.873-5.876-8.809-13.414-8.809-22.621s2.936-16.906 8.809-23.094c5.873-6.193 13.413-9.289 22.619-9.289z" />
<glyph unicode="&#xe946;" d="M504.978-48.937c66.35 0 128.809 12.698 187.377 38.093 58.573 25.395 110.241 60.475 154.999 105.238 44.763 44.763 79.843 96.427 105.238 154.999 25.4 58.573 38.098 121.032 38.098 187.382 0 66.348-12.698 128.808-38.098 187.38-25.395 58.571-60.475 110.238-105.238 155-44.759 44.762-96.505 79.841-155.238 105.238-58.729 25.397-121.266 38.095-187.616 38.095s-128.81-12.698-187.381-38.095c-58.571-25.397-110.159-60.476-154.762-105.238s-79.603-96.429-105-155c-25.397-58.571-38.095-121.032-38.095-187.38 0-66.35 12.698-128.809 38.095-187.382s60.476-110.236 105.238-154.999c44.762-44.763 96.429-79.843 155-105.238s121.032-38.093 187.383-38.093z" />
<glyph unicode="&#xe947;" d="M504.5 280.108c-4.764 0-9.206 0.951-13.332 2.857-4.129 1.902-7.938 4.759-11.431 8.572l-165.714 169.521c-3.174 3.174-5.714 7.066-7.619 11.667-1.905 4.603-2.857 8.651-2.857 12.143 0 9.842 2.936 17.778 8.809 23.81s13.572 9.047 23.096 9.047c5.079 0 9.603-0.793 13.571-2.381s7.381-4.126 10.238-7.619l28.095-30.476 89.524-99.998-6.191 90v224.76c0 9.842 3.095 17.858 9.286 24.048s14.367 9.286 24.524 9.286c9.206 0 16.906-3.095 23.094-9.286 6.193-6.19 9.284-14.206 9.284-24.048v-224.76l-4.759-89.522 87.62 99.521 30.476 30.476c3.174 3.492 6.905 6.032 11.186 7.619 4.291 1.588 8.655 2.381 13.097 2.381 9.206 0 16.75-3.174 22.621-9.524s8.806-13.968 8.806-22.857c0-4.444-0.873-8.73-2.619-12.857-1.746-4.125-4.52-8.094-8.333-11.902l-165.712-169.048c-3.491-3.813-7.378-6.671-11.669-8.572-4.281-1.907-8.65-2.857-13.093-2.857zM320.215 176.777c-9.524 0-17.302 3.092-23.334 9.284-6.032 6.188-9.048 14.204-9.048 24.049 0 9.206 3.016 16.901 9.048 23.094 6.032 6.188 13.81 9.284 23.334 9.284h369.045c9.528 0 17.306-3.096 23.337-9.284 6.032-6.193 9.045-13.887 9.045-23.094 0-9.845-3.013-17.861-9.045-24.049-6.032-6.193-13.809-9.284-23.337-9.284h-369.045z" />
<glyph unicode="&#xe948;" glyph-name="Group-240" horiz-adv-x="1344" d="M55.625-9.766c16.667 0 30.209 4.998 40.625 15.002s15.625 22.918 15.625 38.752v838.122c0 16.25-5.208 29.583-15.625 40s-23.958 15.625-40.625 15.625c-16.25 0-29.583-5.208-40-15.625s-15.625-23.75-15.625-40v-838.122c0-15.834 5.208-28.749 15.625-38.752s23.75-15.002 40-15.002zM586.25-9.766c15.416 0 28.437 4.998 39.062 15.002 10.623 10.003 15.935 22.918 15.935 38.752 0 7.085-1.354 14.163-4.061 21.248s-6.354 13.126-10.937 18.125l-140 142.502-245.625 223.122-12.5-34.375 186.25-6.875h823.75c15.834 0 28.96 5.313 39.373 15.937 10.419 10.625 15.629 24.063 15.629 40.313s-5.21 29.583-15.629 40c-10.413 10.417-23.539 15.625-39.373 15.625h-823.75l-186.25-6.875 12.5-35 245.625 224.375 140 141.875c4.583 5 8.229 11.041 10.937 18.125s4.061 14.375 4.061 21.875c0 15.416-5.312 28.229-15.935 38.437-10.625 10.208-23.646 15.313-39.062 15.313-14.584 0-27.917-5.833-40-17.5l-415.625-414.375c-6.25-6.25-11.042-12.916-14.375-20s-5-14.374-5-21.875c0-7.917 1.667-15.417 5-22.5s8.125-13.541 14.375-19.375l415.625-414.999c12.083-11.251 25.416-16.877 40-16.877z" />
<glyph unicode="&#xe949;" glyph-name="Group-241" horiz-adv-x="1152" d="M119.977 39.61v843.124c0 16.25-5.208 29.479-15.625 39.688s-23.958 15.313-40.625 15.313c-16.25 0-29.583-5.104-40-15.313s-15.625-23.438-15.625-39.688v-843.124c0-15.834 5.208-28.749 15.625-38.752 10.417-9.997 23.75-14.995 40-14.995 16.667 0 30.209 4.998 40.625 14.995 10.417 10.003 15.625 22.918 15.625 38.752zM1109.35 461.484c0 16.667-5.101 30.209-15.309 40.625s-23.437 15.625-39.686 15.625h-631.253l-133.75-5 205 188.125 138.125 140.625c5.416 5 9.482 11.042 12.189 18.125s4.064 14.374 4.064 21.875c0 15.417-5.312 28.334-15.94 38.75-10.625 10.417-23.646 15.625-39.062 15.625-7.917 0-15.313-1.562-22.188-4.687s-13.437-7.813-19.688-14.063l-414.375-413.125c-6.25-6.25-11.041-12.917-14.374-20s-5-14.584-5-22.5c0-7.5 1.667-14.792 5-21.875s8.124-13.75 14.374-20l414.375-413.126c6.25-6.253 12.813-10.835 19.688-13.747 6.875-2.918 14.271-4.378 22.188-4.378 15.416 0 28.437 5.107 39.062 15.315 10.628 10.208 15.94 23.021 15.94 38.438 0 7.494-1.357 14.79-4.064 21.875s-6.772 13.331-12.189 18.746l-138.125 140-205.625 187.501 134.375-4.375h631.253c16.25 0 29.478 5.208 39.686 15.625s15.309 23.75 15.309 40z" />
<glyph unicode="&#xe94a;" glyph-name="Group-242" d="M498.152-28.394c66.35 0 128.809 12.698 187.377 38.098 58.573 25.395 110.241 60.475 154.999 105.238 44.763 44.759 79.843 96.427 105.238 154.999 25.4 58.568 38.098 121.032 38.098 187.382 0 66.347-12.698 128.808-38.098 187.379-25.395 58.571-60.475 110.238-105.238 155-44.759 44.762-96.505 79.841-155.238 105.238-58.729 25.397-121.266 38.095-187.616 38.095-66.349 0-128.809-12.698-187.38-38.095s-110.159-60.476-154.762-105.238c-44.603-44.762-79.603-96.429-105-155s-38.095-121.032-38.095-187.379c0-66.35 12.698-128.814 38.095-187.382 25.397-58.573 60.476-110.241 105.238-154.999 44.762-44.763 96.429-79.843 155-105.238 58.571-25.4 121.032-38.098 187.382-38.098zM498.152 52.56c-56.192 0-108.731 10.474-157.62 31.427s-91.826 49.918-128.81 86.903c-36.984 36.986-65.873 79.921-86.666 128.809s-31.191 101.43-31.191 157.623c0 56.189 10.397 108.728 31.191 157.617s49.603 91.905 86.429 129.048c36.825 37.143 79.682 66.111 128.571 86.905s101.429 31.19 157.618 31.19c56.193 0 108.729-10.397 157.618-31.19s91.906-49.762 129.048-86.905c37.147-37.143 66.194-80.159 87.142-129.048 20.953-48.889 31.427-101.428 31.427-157.617 0-56.193-10.396-108.734-31.188-157.623s-49.684-91.824-86.669-128.809c-36.981-36.986-79.999-65.95-129.048-86.903-49.045-20.953-101.664-31.427-157.852-31.427zM297.674 247.32c8.889 0 16.349 2.935 22.381 8.811s9.048 13.414 9.048 22.621v357.617c0 9.524-3.016 17.222-9.048 23.095s-13.492 8.809-22.381 8.809c-9.524 0-17.302-2.936-23.334-8.809s-9.047-13.571-9.047-23.095v-357.617c0-9.206 3.015-16.745 9.047-22.621s13.809-8.811 23.334-8.811zM796.721 457.323c0 9.206-2.935 16.744-8.811 22.617-5.871 5.873-13.41 8.809-22.616 8.809h-218.575l-87.139-4.762 96.663 85.714 30.003 29.047c3.174 3.175 5.476 6.826 6.905 10.952s2.141 8.254 2.141 12.381c0 9.206-3.013 16.587-9.045 22.143s-13.332 8.333-21.904 8.333c-9.523 0-17.462-3.174-23.81-9.524l-164.285-161.905c-7.302-6.984-10.952-14.918-10.952-23.808 0-9.206 3.651-17.145 10.952-23.81l163.807-160.475c3.179-2.857 7.066-5.32 11.669-7.383s8.811-3.096 12.62-3.096c9.206 0 16.667 2.857 22.377 8.572 5.715 5.715 8.572 13.175 8.572 22.382 0 4.764-0.712 9.050-2.141 12.859s-3.73 7.139-6.905 9.996l-30.476 28.097-96.666 86.192 87.615-5.715h218.575c9.206 0 16.745 3.013 22.616 9.045 5.876 6.032 8.811 13.814 8.811 23.337z" />
<glyph unicode="&#xe94b;" d="M490.511-28.394c66.35 0 128.814 12.698 187.382 38.098 58.573 25.395 110.241 60.475 154.999 105.238 44.763 44.759 79.843 96.427 105.238 154.999 25.4 58.568 38.098 121.032 38.098 187.382 0 66.347-12.698 128.808-38.098 187.379-25.395 58.571-60.475 110.238-105.238 155-44.759 44.762-96.505 79.841-155.238 105.238-58.729 25.397-121.271 38.095-187.616 38.095-66.351 0-128.811-12.698-187.383-38.095s-110.159-60.476-154.762-105.238c-44.603-44.762-79.603-96.429-105-155s-38.095-121.032-38.095-187.379c0-66.35 12.698-128.814 38.095-187.382 25.397-58.573 60.476-110.241 105.238-154.999 44.762-44.763 96.429-79.843 155-105.238 58.571-25.4 121.032-38.098 187.38-38.098z" />
<glyph unicode="&#xe94c;" d="M284.321 240.655c-9.841 0-17.936 3.013-24.285 9.045s-9.524 13.814-9.524 23.337v369.046c0 9.524 3.175 17.381 9.524 23.572s14.444 9.286 24.285 9.286c9.206 0 16.905-3.095 23.095-9.286s9.286-14.047 9.286-23.572v-369.046c0-9.523-3.095-17.306-9.286-23.337s-13.889-9.045-23.095-9.045zM799.086 457.323c0-10.157-3.096-18.334-9.289-24.527-6.188-6.188-14.048-9.284-23.572-9.284h-224.758l-90.479 6.193 100.002-89.049 30.949-28.574c3.496-2.853 5.954-6.266 7.383-10.235s2.141-8.494 2.141-13.57c0-9.206-3.013-16.828-9.045-22.86s-13.809-9.045-23.333-9.045c-3.808 0-8.094 1.029-12.859 3.092s-8.728 4.686-11.903 7.86l-169.049 165.235c-3.81 3.496-6.667 7.305-8.571 11.43-1.905 4.13-2.857 8.572-2.857 13.336 0 4.442 1.111 8.806 3.333 13.093s4.921 8.175 8.095 11.668l169.522 166.666c6.354 6.667 14.448 10 24.288 10 9.206 0 16.906-2.936 23.094-8.809s9.284-13.413 9.284-22.619c0-4.444-0.712-8.809-2.141-13.095s-3.886-8.016-7.383-11.191l-30.476-29.523-99.998-88.572 90.002 4.762h224.758c9.523 0 17.384-3.095 23.572-9.285 6.193-6.19 9.289-13.887 9.289-23.094z" />
<glyph unicode="&#xe94d;" glyph-name="Group-244" horiz-adv-x="1408" d="M115.898-9.766c16.667 0 30.209 4.998 40.625 15.002s15.625 22.918 15.625 38.752v838.122c0 16.25-5.208 29.583-15.625 40s-23.958 15.625-40.625 15.625c-16.25 0-29.583-5.208-40-15.625s-15.625-23.75-15.625-40v-838.122c0-15.834 5.208-28.749 15.625-38.752s23.75-15.002 40-15.002zM646.522-9.766c15.418 0 28.442 4.998 39.066 15.002s15.936 22.918 15.936 38.752c0 7.085-1.357 14.163-4.064 21.248s-6.355 13.126-10.938 18.125l-139.998 142.502-245.625 223.122-12.5-34.375 186.25-6.875h823.752c15.834 0 28.954 5.313 39.373 15.937s15.629 24.063 15.629 40.313c0 16.25-5.21 29.583-15.629 40s-23.539 15.625-39.373 15.625h-823.752l-186.25-6.875 12.5-35 245.625 224.375 139.998 141.875c4.582 5 8.23 11.041 10.938 18.125s4.064 14.375 4.064 21.875c0 15.416-5.312 28.229-15.936 38.437s-23.648 15.313-39.066 15.313c-14.581 0-27.915-5.833-39.998-17.5l-415.625-414.375c-6.25-6.25-11.042-12.916-14.375-20s-5-14.374-5-21.875c0-7.917 1.667-15.417 5-22.5s8.125-13.541 14.375-19.375l415.625-414.999c12.083-11.251 25.417-16.877 39.998-16.877z" />
<glyph unicode="&#xe94e;" glyph-name="Group-245" horiz-adv-x="975" d="M489.048-28.394c66.35 0 128.809 12.698 187.377 38.098 58.573 25.395 110.241 60.475 154.999 105.238 44.763 44.759 79.843 96.427 105.238 154.999 25.4 58.568 38.098 121.032 38.098 187.382 0 66.347-12.698 128.808-38.098 187.379-25.395 58.571-60.475 110.238-105.238 155-44.759 44.762-96.505 79.841-155.238 105.238-58.729 25.397-121.266 38.095-187.616 38.095-66.349 0-128.809-12.698-187.381-38.095s-110.159-60.476-154.762-105.238c-44.603-44.762-79.603-96.429-105-155s-38.095-121.032-38.095-187.379c0-66.35 12.698-128.814 38.095-187.382 25.397-58.573 60.476-110.241 105.238-154.999 44.762-44.763 96.429-79.843 155-105.238 58.571-25.4 121.032-38.098 187.383-38.098zM489.048 52.56c-56.192 0-108.732 10.474-157.62 31.427s-91.825 49.918-128.81 86.903c-36.984 36.986-65.873 79.921-86.666 128.809s-31.191 101.43-31.191 157.623c0 56.189 10.397 108.728 31.191 157.617s49.603 91.905 86.429 129.048c36.825 37.143 79.682 66.111 128.571 86.905s101.429 31.19 157.619 31.19c56.193 0 108.729-10.397 157.618-31.19s91.906-49.762 129.048-86.905c37.147-37.143 66.194-80.159 87.142-129.048 20.953-48.889 31.427-101.428 31.427-157.617 0-56.193-10.396-108.734-31.188-157.623s-49.684-91.824-86.669-128.809c-36.981-36.986-79.999-65.95-129.048-86.903-49.045-20.953-101.664-31.427-157.852-31.427zM288.57 247.32c8.889 0 16.349 2.935 22.381 8.811s9.048 13.414 9.048 22.621v357.617c0 9.524-3.016 17.222-9.048 23.095s-13.492 8.809-22.381 8.809c-9.524 0-17.302-2.936-23.334-8.809s-9.047-13.571-9.047-23.095v-357.617c0-9.206 3.016-16.745 9.047-22.621s13.81-8.811 23.334-8.811zM787.617 457.323c0 9.206-2.935 16.744-8.811 22.617-5.871 5.873-13.41 8.809-22.616 8.809h-218.575l-87.14-4.762 96.663 85.714 30.003 29.047c3.174 3.175 5.476 6.826 6.905 10.952s2.141 8.254 2.141 12.381c0 9.206-3.013 16.587-9.045 22.143s-13.332 8.333-21.904 8.333c-9.523 0-17.462-3.174-23.81-9.524l-164.285-161.905c-7.302-6.984-10.952-14.918-10.952-23.808 0-9.206 3.651-17.145 10.952-23.81l163.807-160.475c3.179-2.857 7.066-5.32 11.669-7.383s8.811-3.096 12.62-3.096c9.206 0 16.667 2.857 22.377 8.572 5.715 5.715 8.572 13.175 8.572 22.382 0 4.764-0.712 9.050-2.141 12.859s-3.73 7.139-6.905 9.996l-30.476 28.097-96.666 86.192 87.616-5.715h218.575c9.206 0 16.745 3.013 22.616 9.045 5.876 6.032 8.811 13.814 8.811 23.337z" />
<glyph unicode="&#xe94f;" d="M530.169-28.394c66.35 0 128.809 12.698 187.382 38.098 58.573 25.395 110.241 60.475 154.999 105.238 44.763 44.759 79.843 96.427 105.238 154.999 25.395 58.568 38.098 121.032 38.098 187.382 0 66.347-12.702 128.808-38.098 187.379s-60.475 110.238-105.238 155c-44.759 44.762-96.51 79.841-155.238 105.238s-121.271 38.095-187.616 38.095c-66.351 0-128.811-12.698-187.383-38.095s-110.159-60.476-154.762-105.238c-44.603-44.762-79.603-96.429-105-155s-38.095-121.032-38.095-187.379c0-66.35 12.698-128.814 38.095-187.382 25.397-58.573 60.476-110.241 105.238-154.999 44.762-44.763 96.429-79.843 155-105.238 58.572-25.4 121.032-38.098 187.38-38.098z" />
<glyph unicode="&#xe950;" d="M323.979 240.655c-9.841 0-17.936 3.013-24.285 9.045s-9.524 13.814-9.524 23.337v369.046c0 9.524 3.175 17.381 9.524 23.572s14.444 9.286 24.285 9.286c9.206 0 16.905-3.095 23.095-9.286s9.286-14.047 9.286-23.572v-369.046c0-9.523-3.095-17.306-9.286-23.337s-13.889-9.045-23.095-9.045zM838.744 457.323c0-10.157-3.096-18.334-9.289-24.527-6.188-6.188-14.048-9.284-23.572-9.284h-224.758l-90.478 6.193 100.001-89.049 30.949-28.574c3.496-2.853 5.954-6.266 7.383-10.235s2.141-8.494 2.141-13.57c0-9.206-3.013-16.828-9.045-22.86s-13.809-9.045-23.333-9.045c-3.808 0-8.094 1.029-12.859 3.092s-8.728 4.686-11.903 7.86l-169.050 165.235c-3.809 3.496-6.667 7.305-8.571 11.43-1.905 4.13-2.857 8.572-2.857 13.336 0 4.442 1.111 8.806 3.333 13.093s4.921 8.175 8.095 11.668l169.523 166.666c6.354 6.667 14.448 10 24.288 10 9.206 0 16.906-2.936 23.094-8.809s9.284-13.413 9.284-22.619c0-4.444-0.712-8.809-2.141-13.095s-3.886-8.016-7.383-11.191l-30.476-29.523-100.001-88.572 90.005 4.762h224.758c9.523 0 17.384-3.095 23.572-9.285 6.193-6.19 9.289-13.887 9.289-23.094z" />
<glyph unicode="&#xe951;" glyph-name="Group-247" horiz-adv-x="1344" d="M754.573-9.766c15.002 0 28.538 5.626 40.621 16.877l415.629 414.999c6.246 5.834 10.938 12.292 14.061 19.375s4.685 14.584 4.685 22.5c0 7.5-1.562 14.792-4.685 21.875s-7.814 13.75-14.061 20l-415.629 414.375c-12.083 11.667-25.619 17.5-40.621 17.5-15.418 0-28.333-5.104-38.752-15.313s-15.629-23.021-15.629-38.437c0-7.5 1.254-14.792 3.75-21.875 2.502-7.084 6.253-13.125 11.251-18.125l140-141.875 245.626-224.375 12.499 35-186.246 6.875h-823.75c-16.25 0-29.479-5.208-39.687-15.625s-15.313-23.75-15.313-40c0-16.25 5.104-29.688 15.313-40.313s23.437-15.937 39.687-15.937h823.75l186.246 6.875-12.499 34.375-245.626-223.122-140-142.502c-4.998-4.998-8.749-11.040-11.251-18.125-2.496-7.085-3.75-14.163-3.75-21.248 0-15.834 5.21-28.749 15.629-38.752s23.334-15.002 38.752-15.002zM1285.197-9.766c16.25 0 29.69 4.998 40.314 15.002s15.936 22.918 15.936 38.752v838.122c0 16.25-5.312 29.583-15.936 40s-24.064 15.625-40.314 15.625c-16.25 0-29.581-5.208-40-15.625s-15.629-23.75-15.629-40v-838.122c0-15.834 5.21-28.749 15.629-38.752s23.75-15.002 40-15.002z" />
<glyph unicode="&#xe952;" glyph-name="Group-248" horiz-adv-x="1216" d="M56.422 461.484c0-16.25 5.104-29.583 15.313-40s23.437-15.625 39.688-15.625h631.874l133.754 4.375-205.626-187.501-138.127-140c-5-5.414-8.854-11.661-11.562-18.746s-4.063-14.381-4.063-21.875c0-15.418 5.208-28.23 15.625-38.438s23.333-15.315 38.75-15.315c7.917 0 15.313 1.459 22.188 4.378 6.875 2.912 13.437 7.494 19.688 13.747l414.372 413.126c6.253 6.25 11.046 12.916 14.381 20s4.998 14.374 4.998 21.875c0 7.917-1.664 15.417-4.998 22.5s-8.128 13.75-14.381 20l-414.372 413.125c-6.25 6.25-12.813 10.938-19.688 14.063s-14.271 4.687-22.188 4.687c-15.417 0-28.333-5.208-38.75-15.625s-15.625-23.333-15.625-38.75c0-7.5 1.354-14.792 4.063-21.875s6.562-13.125 11.562-18.125l138.127-140.625 204.998-188.125-133.126 5h-631.874c-16.25 0-29.479-5.208-39.688-15.625s-15.313-23.958-15.313-40.625zM1045.798 39.61c0-15.834 5.21-28.749 15.622-38.752 10.419-9.997 23.962-14.995 40.627-14.995 16.25 0 29.587 4.998 40 14.995 10.413 10.003 15.622 22.918 15.622 38.752v843.124c0 16.25-5.21 29.479-15.622 39.688s-23.75 15.313-40 15.313c-16.666 0-30.208-5.104-40.627-15.313-10.413-10.208-15.622-23.438-15.622-39.688v-843.124z" />
<glyph unicode="&#xe953;" glyph-name="Group-249" horiz-adv-x="975" d="M486.205-28.394c66.35 0 128.809 12.698 187.382 38.098 58.573 25.395 110.236 60.475 154.999 105.238 44.763 44.759 79.843 96.427 105.238 154.999 25.395 58.568 38.098 121.032 38.098 187.382 0 66.347-12.702 128.808-38.098 187.379s-60.475 110.238-105.238 155c-44.763 44.762-96.51 79.841-155.238 105.238s-121.271 38.095-187.619 38.095c-66.349 0-128.809-12.698-187.381-38.095s-110.159-60.476-154.762-105.238c-44.603-44.762-79.603-96.429-105-155s-38.095-121.032-38.095-187.379c0-66.35 12.698-128.814 38.095-187.382 25.397-58.573 60.476-110.241 105.238-154.999 44.762-44.763 96.429-79.843 155-105.238 58.571-25.4 121.032-38.098 187.381-38.098zM486.205 52.56c-56.191 0-108.73 10.474-157.619 31.427s-91.825 49.918-128.81 86.903c-36.984 36.986-65.873 79.921-86.666 128.809s-31.191 101.43-31.191 157.623c0 56.189 10.397 108.728 31.191 157.617s49.603 91.905 86.429 129.048c36.825 37.143 79.682 66.111 128.571 86.905s101.429 31.19 157.619 31.19c56.191 0 108.732-10.397 157.621-31.19s91.902-49.762 129.048-86.905c37.142-37.143 66.189-80.159 87.142-129.048 20.948-48.889 31.427-101.428 31.427-157.617 0-56.193-10.396-108.734-31.188-157.623-20.797-48.889-49.688-91.824-86.669-128.809-36.986-36.986-80.004-65.95-129.048-86.903s-101.664-31.427-157.856-31.427zM186.682 457.323c0-9.523 3.016-17.306 9.048-23.337s13.65-9.045 22.857-9.045h218.571l87.145 5.715-96.669-86.192-30.476-28.097c-3.175-2.857-5.476-6.188-6.905-9.996s-2.143-8.094-2.143-12.859c0-9.206 2.936-16.667 8.809-22.382s13.254-8.572 22.143-8.572c4.127 0 8.413 1.034 12.858 3.096s8.254 4.525 11.428 7.383l163.811 160.475c7.3 6.666 10.952 14.604 10.952 23.81 0 8.889-3.652 16.823-10.952 23.808l-164.287 161.905c-6.349 6.349-14.286 9.524-23.81 9.524-8.571 0-15.873-2.778-21.904-8.333s-9.048-12.937-9.048-22.143c0-4.127 0.714-8.254 2.143-12.381s3.73-7.778 6.905-10.952l30-29.047 96.667-85.714-86.667 4.762h-218.571c-9.207 0-16.826-2.936-22.857-8.809s-9.048-13.411-9.048-22.617zM686.207 247.32c9.206 0 16.823 2.935 22.855 8.811s9.050 13.414 9.050 22.621v357.617c0 9.524-3.018 17.222-9.050 23.095s-13.648 8.809-22.855 8.809c-9.206 0-16.75-2.936-22.621-8.809s-8.806-13.571-8.806-23.095v-357.617c0-9.206 2.935-16.745 8.806-22.621s13.414-8.811 22.621-8.811z" />
<glyph unicode="&#xe954;" d="M527.331-28.394c66.35 0 128.809 12.698 187.382 38.098 58.573 25.395 110.236 60.475 154.999 105.238 44.763 44.759 79.843 96.427 105.238 154.999 25.395 58.568 38.098 121.032 38.098 187.382 0 66.347-12.702 128.808-38.098 187.379s-60.475 110.238-105.238 155c-44.763 44.762-96.51 79.841-155.238 105.238s-121.271 38.095-187.621 38.095c-66.348 0-128.808-12.698-187.38-38.095s-110.159-60.476-154.762-105.238c-44.603-44.762-79.603-96.429-105-155s-38.095-121.032-38.095-187.379c0-66.35 12.698-128.814 38.095-187.382 25.397-58.573 60.476-110.241 105.238-154.999 44.762-44.763 96.429-79.843 155-105.238 58.572-25.4 121.032-38.098 187.382-38.098z" />
<glyph unicode="&#xe955;" d="M218.759 457.323c0 9.206 3.095 16.903 9.286 23.094s14.206 9.285 24.048 9.285h224.762l89.525-4.762-100.001 88.572-30.476 29.523c-3.492 3.175-5.952 6.905-7.382 11.191s-2.143 8.651-2.143 13.095c0 9.206 3.174 16.746 9.524 22.619s13.968 8.809 22.857 8.809c9.841 0 17.936-3.333 24.285-10l169.527-166.666c3.491-3.492 6.266-7.381 8.333-11.668 2.063-4.286 3.096-8.65 3.096-13.093 0-4.764-0.956-9.206-2.857-13.336-1.907-4.125-4.764-7.934-8.572-11.43l-169.050-165.235c-3.175-3.174-7.064-5.798-11.667-7.86s-8.968-3.092-13.095-3.092c-9.524 0-17.302 3.013-23.334 9.045s-9.048 13.653-9.048 22.86c0 5.076 0.714 9.601 2.143 13.57s3.889 7.383 7.382 10.235l30.952 28.574 100.003 89.049-90.003-6.193h-224.762c-9.842 0-17.858 3.096-24.048 9.284-6.191 6.193-9.286 14.37-9.286 24.527zM733.998 240.655c-9.206 0-16.906 3.013-23.094 9.045-6.193 6.032-9.284 13.814-9.284 23.337v369.046c0 9.524 3.092 17.381 9.284 23.572 6.188 6.191 13.887 9.286 23.094 9.286 9.84 0 17.857-3.095 24.049-9.286 6.188-6.19 9.284-14.047 9.284-23.572v-369.046c0-9.523-3.096-17.306-9.284-23.337-6.193-6.032-14.209-9.045-24.049-9.045z" />
<glyph unicode="&#xe956;" glyph-name="Group-251" horiz-adv-x="1344" d="M750.848-9.766c15.002 0 28.538 5.626 40.621 16.877l415.629 414.999c6.246 5.834 10.938 12.292 14.061 19.375s4.685 14.584 4.685 22.5c0 7.5-1.562 14.792-4.685 21.875s-7.814 13.75-14.061 20l-415.629 414.375c-12.083 11.667-25.619 17.5-40.621 17.5-15.418 0-28.333-5.104-38.752-15.313s-15.629-23.021-15.629-38.437c0-7.5 1.254-14.792 3.75-21.875 2.502-7.084 6.253-13.125 11.251-18.125l140-141.875 245.626-224.375 12.499 35-186.246 6.875h-823.75c-16.25 0-29.479-5.208-39.687-15.625s-15.313-23.75-15.313-40c0-16.25 5.104-29.688 15.313-40.313s23.438-15.937 39.687-15.937h823.75l186.246 6.875-12.499 34.375-245.626-223.122-140-142.502c-4.998-4.998-8.749-11.040-11.251-18.125-2.496-7.085-3.75-14.163-3.75-21.248 0-15.834 5.21-28.749 15.629-38.752s23.334-15.002 38.752-15.002zM1281.472-9.766c16.25 0 29.69 4.998 40.314 15.002s15.936 22.918 15.936 38.752v838.122c0 16.25-5.312 29.583-15.936 40s-24.064 15.625-40.314 15.625c-16.25 0-29.581-5.208-40-15.625s-15.629-23.75-15.629-40v-838.122c0-15.834 5.21-28.749 15.629-38.752s23.75-15.002 40-15.002z" />
<glyph unicode="&#xe957;" glyph-name="Group-252" d="M525.868-28.394c66.35 0 128.809 12.698 187.377 38.098 58.573 25.395 110.241 60.475 154.999 105.238 44.763 44.759 79.843 96.427 105.238 154.999 25.4 58.568 38.098 121.032 38.098 187.382 0 66.347-12.698 128.808-38.098 187.379-25.395 58.571-60.475 110.238-105.238 155-44.759 44.762-96.505 79.841-155.238 105.238-58.729 25.397-121.266 38.095-187.616 38.095s-128.809-12.698-187.381-38.095c-58.572-25.397-110.159-60.476-154.762-105.238s-79.603-96.429-105-155c-25.397-58.571-38.095-121.032-38.095-187.379 0-66.35 12.698-128.814 38.095-187.382 25.397-58.573 60.476-110.241 105.238-154.999 44.762-44.763 96.429-79.843 155-105.238 58.571-25.4 121.032-38.098 187.383-38.098zM525.868 52.56c-56.192 0-108.732 10.474-157.62 31.427s-91.826 49.918-128.81 86.903c-36.984 36.986-65.873 79.921-86.666 128.809s-31.191 101.43-31.191 157.623c0 56.189 10.397 108.728 31.191 157.617s49.603 91.905 86.429 129.048c36.825 37.143 79.682 66.111 128.571 86.905s101.429 31.19 157.619 31.19c56.188 0 108.729-10.397 157.618-31.19s91.906-49.762 129.048-86.905c37.147-37.143 66.194-80.159 87.142-129.048 20.953-48.889 31.427-101.428 31.427-157.617 0-56.193-10.396-108.734-31.188-157.623s-49.684-91.824-86.669-128.809c-36.981-36.986-79.999-65.95-129.048-86.903-49.045-20.953-101.664-31.427-157.852-31.427zM226.343 457.323c0-9.523 3.016-17.306 9.048-23.337s13.65-9.045 22.857-9.045h218.571l87.142 5.715-96.666-86.192-30.476-28.097c-3.175-2.857-5.476-6.188-6.905-9.996s-2.143-8.094-2.143-12.859c0-9.206 2.936-16.667 8.809-22.382s13.254-8.572 22.142-8.572c4.127 0 8.413 1.034 12.858 3.096s8.254 4.525 11.428 7.383l163.808 160.475c7.305 6.666 10.952 14.604 10.952 23.81 0 8.889-3.647 16.823-10.952 23.808l-164.284 161.905c-6.35 6.349-14.286 9.524-23.81 9.524-8.571 0-15.872-2.778-21.904-8.333s-9.048-12.937-9.048-22.143c0-4.127 0.714-8.254 2.143-12.381s3.73-7.778 6.905-10.952l30-29.047 96.664-85.714-86.664 4.762h-218.571c-9.207 0-16.826-2.936-22.857-8.809s-9.048-13.411-9.048-22.617zM725.865 247.32c9.206 0 16.828 2.935 22.855 8.811 6.037 5.876 9.050 13.414 9.050 22.621v357.617c0 9.524-3.013 17.222-9.050 23.095-6.027 5.873-13.648 8.809-22.855 8.809s-16.745-2.936-22.621-8.809c-5.871-5.873-8.806-13.571-8.806-23.095v-357.617c0-9.206 2.935-16.745 8.806-22.621 5.876-5.876 13.414-8.811 22.621-8.811z" />
<glyph unicode="&#xe958;" d="M518.227-28.394c66.355 0 128.814 12.698 187.382 38.098 58.573 25.395 110.241 60.475 154.999 105.238 44.763 44.759 79.843 96.427 105.238 154.999 25.4 58.568 38.098 121.032 38.098 187.382 0 66.347-12.698 128.808-38.098 187.379-25.395 58.571-60.475 110.238-105.238 155-44.759 44.762-96.505 79.841-155.238 105.238-58.729 25.397-121.266 38.095-187.616 38.095s-128.81-12.698-187.382-38.095c-58.571-25.397-110.159-60.476-154.762-105.238s-79.603-96.429-105-155c-25.397-58.571-38.095-121.032-38.095-187.379 0-66.35 12.698-128.814 38.095-187.382 25.397-58.573 60.476-110.241 105.238-154.999 44.762-44.763 96.429-79.843 155-105.238 58.571-25.4 121.032-38.098 187.379-38.098z" />
</font>
</defs>
</svg>
