<svg width="12" height="21" viewBox="0 0 12 21" fill="none" xmlns="http://www.w3.org/2000/svg">
<path id="Vector" d="M2.28711 0.86911C2.07617 0.669892 1.8184 0.552704 1.5254 0.552704C0.916003 0.552704 0.447303 1.00973 0.447303 1.61911C0.447303 1.92379 0.576203 2.19332 0.763703 2.38082L9.92773 11.3574V10.1035L0.763703 19.08C0.576203 19.2793 0.447303 19.5488 0.447303 19.8418C0.447303 20.4511 0.916003 20.9082 1.5254 20.9082C1.8184 20.9082 2.07617 20.791 2.28711 20.5918L11.5684 11.5215C11.791 11.3222 11.9082 11.0293 11.9082 10.7363C11.9082 10.4316 11.791 10.1621 11.5684 9.93942L2.28711 0.86911Z" fill="black" fill-opacity="0.85"/>
</svg>
