<svg width="15" height="14" viewBox="0 0 15 14" fill="none"
    xmlns="http://www.w3.org/2000/svg">
    <path opacity="0.14" fill-rule="evenodd" clip-rule="evenodd" d="M5.55554 0.14135C2.8274 0.724643 0.706755 2.86846 0.142622 5.61333C-0.631706 9.38086 1.82483 13.0771 5.62171 13.8574C9.38923 14.6317 13.0854 12.1752 13.8658 8.37829C14.6401 4.61077 12.1835 0.914557 8.38667 0.134247C7.50365 -0.0472552 6.42473 -0.0445449 5.55554 0.14135ZM8.68229 0.840815C9.79943 1.13485 10.5888 1.6029 11.493 2.50705C12.8059 3.8199 13.3659 5.16201 13.3659 6.99581C13.3659 8.82962 12.8059 10.1717 11.493 11.4846C10.1984 12.7792 8.7893 13.3715 7.00419 13.3715C5.21907 13.3715 3.80996 12.7792 2.51542 11.4846C1.22079 10.19 0.628528 8.78093 0.628528 6.99581C0.628528 5.2107 1.22079 3.80158 2.51542 2.50705C4.21782 0.804552 6.35304 0.227708 8.68229 0.840815ZM7.96282 1.89628C7.69365 2.12273 7.44159 2.60425 7.33672 3.09193L7.28196 3.34708L5.32992 3.37231L3.37788 3.39755L4.62812 4.78853C5.31571 5.55361 5.86415 6.2055 5.84676 6.23719C5.82938 6.26887 5.2416 7.2933 4.54045 8.51363C3.8394 9.73395 3.26573 10.7539 3.26573 10.7801C3.26573 10.8063 3.89659 10.8277 4.66765 10.8277C5.43871 10.8277 6.06957 10.8516 6.06957 10.8806C6.06957 10.9097 6.02256 11.0253 5.96518 11.1376C5.78068 11.4984 5.48684 11.6646 5.02953 11.6668C4.56998 11.669 4.34399 11.8214 4.47821 12.0386C4.58634 12.2136 5.41254 12.1908 5.77592 12.0028C6.09658 11.837 6.40267 11.4433 6.49408 11.079L6.55716 10.8277H8.65163H10.7462L10.6934 10.6174C10.6643 10.5018 10.5662 10.1128 10.4753 9.75292C10.2819 8.98691 10.0891 8.88897 9.96907 9.49591L9.89046 9.89312H8.30713C6.78801 9.89312 6.7238 9.88555 6.7238 9.70685C6.7238 9.52965 7.50224 4.7089 7.61814 4.1686C7.67262 3.91448 7.6816 3.91158 8.41349 3.91158C9.11857 3.91158 9.15389 3.92158 9.15511 4.12187C9.15941 4.83424 9.47559 4.97761 9.56727 4.3088C9.60083 4.06467 9.65092 3.74924 9.67877 3.60783L9.72943 3.35082H8.78734H7.84534V3.10819C7.84534 2.78472 8.10414 2.36255 8.37938 2.23722C8.60219 2.13563 8.79799 2.20059 9.26801 2.53209C9.39484 2.62154 9.454 2.6207 9.54634 2.52836C9.69859 2.37611 9.56886 2.16086 9.15455 1.8788C8.74715 1.6014 8.30564 1.60785 7.96282 1.89628ZM7.15055 4.1686C7.12008 4.31001 7.03344 4.77872 6.95821 5.21032C6.88288 5.64184 6.80633 6.00979 6.7882 6.02793C6.74932 6.06681 4.85457 4.04654 4.85457 3.96626C4.85457 3.93616 5.38366 3.91158 6.03023 3.91158H7.20597L7.15055 4.1686ZM6.41678 8.58466L6.20397 9.84639L5.58114 9.87386L4.95832 9.90143L5.77096 8.50241C6.2179 7.73294 6.59399 7.15283 6.6066 7.21311C6.61922 7.27349 6.5338 7.89071 6.41678 8.58466Z" fill="black"/>
</svg>
